<?xml version="1.0" encoding="UTF-8" standalone="no"?>
<!-- Created with Inkscape (http://www.inkscape.org/) -->

<svg
   xmlns:dc="http://purl.org/dc/elements/1.1/"
   xmlns:cc="http://creativecommons.org/ns#"
   xmlns:rdf="http://www.w3.org/1999/02/22-rdf-syntax-ns#"
   xmlns:svg="http://www.w3.org/2000/svg"
   xmlns="http://www.w3.org/2000/svg"
   xmlns:xlink="http://www.w3.org/1999/xlink"
   version="1.1"
   width="512"
   height="512"
   id="svg2985"
   viewBox="0 0 177 193"
   preserveAspectRatio="xMidYMid meet">
  <metadata
     id="metadata2991">
    <rdf:RDF>
      <cc:Work
         rdf:about="">
        <dc:format>image/svg+xml</dc:format>
        <dc:type
           rdf:resource="http://purl.org/dc/dcmitype/StillImage" />
        <dc:title></dc:title>
      </cc:Work>
    </rdf:RDF>
  </metadata>
  <defs
     id="defs2989">
    <linearGradient
       id="linearGradient4983">
      <stop
         id="stop4985"
         style="stop-color:#000000;stop-opacity:1"
         offset="0" />
      <stop
         id="stop4987"
         style="stop-color:#000000;stop-opacity:0"
         offset="1" />
    </linearGradient>
    <linearGradient
       id="linearGradient4941">
      <stop
         id="stop4943"
         style="stop-color:#ffffff;stop-opacity:1"
         offset="0" />
      <stop
         id="stop4945"
         style="stop-color:#ffffff;stop-opacity:0"
         offset="1" />
    </linearGradient>
    <filter
       x="-0.27866387"
       y="-0.22152656"
       width="1.5573277"
       height="1.4430531"
       color-interpolation-filters="sRGB"
       id="filter4824">
      <feGaussianBlur
         id="feGaussianBlur4826"
         stdDeviation="0.71867837" />
    </filter>
    <filter
       x="-0.28946814"
       y="-0.19425721"
       width="1.5789363"
       height="1.3885144"
       color-interpolation-filters="sRGB"
       id="filter4828">
      <feGaussianBlur
         id="feGaussianBlur4830"
         stdDeviation="0.71867837" />
    </filter>
    <filter
       x="-0.23879308"
       y="-0.23687889"
       width="1.4775862"
       height="1.4737577"
       color-interpolation-filters="sRGB"
       id="filter4832">
      <feGaussianBlur
         id="feGaussianBlur4834"
         stdDeviation="0.71867837" />
    </filter>
    <filter
       x="-0.2133574"
       y="-0.31337535"
       width="1.4267148"
       height="1.6267507"
       color-interpolation-filters="sRGB"
       id="filter4836">
      <feGaussianBlur
         id="feGaussianBlur4838"
         stdDeviation="0.71867837" />
    </filter>
    <filter
       x="-0.28938618"
       y="-0.21813937"
       width="1.5787724"
       height="1.4362787"
       color-interpolation-filters="sRGB"
       id="filter4840">
      <feGaussianBlur
         id="feGaussianBlur4842"
         stdDeviation="0.71867837" />
    </filter>
    <filter
       x="-0.25294095"
       y="-0.21393535"
       width="1.5058819"
       height="1.4278708"
       color-interpolation-filters="sRGB"
       id="filter4844">
      <feGaussianBlur
         id="feGaussianBlur4846"
         stdDeviation="0.71867837" />
    </filter>
    <filter
       x="-0.21335724"
       y="-0.31337535"
       width="1.4267145"
       height="1.6267507"
       color-interpolation-filters="sRGB"
       id="filter4848">
      <feGaussianBlur
         id="feGaussianBlur4850"
         stdDeviation="0.71867837" />
    </filter>
    <filter
       x="-0.19667009"
       y="-0.27844518"
       width="1.3933402"
       height="1.5568904"
       color-interpolation-filters="sRGB"
       id="filter4852">
      <feGaussianBlur
         id="feGaussianBlur4854"
         stdDeviation="0.71867837" />
    </filter>
    <filter
       x="-0.21335715"
       y="-0.31337568"
       width="1.4267143"
       height="1.6267514"
       color-interpolation-filters="sRGB"
       id="filter4856">
      <feGaussianBlur
         id="feGaussianBlur4858"
         stdDeviation="0.71867837" />
    </filter>
    <filter
       x="-0.19753738"
       y="-0.27467951"
       width="1.3950748"
       height="1.549359"
       color-interpolation-filters="sRGB"
       id="filter4860">
      <feGaussianBlur
         id="feGaussianBlur4862"
         stdDeviation="0.71867837" />
    </filter>
    <filter
       x="-0.23219927"
       y="-0.23998228"
       width="1.4643985"
       height="1.4799645"
       color-interpolation-filters="sRGB"
       id="filter4864">
      <feGaussianBlur
         id="feGaussianBlur4866"
         stdDeviation="0.71867837" />
    </filter>
    <filter
       x="-0.3241367"
       y="-0.20957381"
       width="1.6482733"
       height="1.4191476"
       color-interpolation-filters="sRGB"
       id="filter4868">
      <feGaussianBlur
         id="feGaussianBlur4870"
         stdDeviation="0.71867837" />
    </filter>
    <filter
       x="-0.22766718"
       y="-0.24255854"
       width="1.4553344"
       height="1.4851171"
       color-interpolation-filters="sRGB"
       id="filter4872">
      <feGaussianBlur
         id="feGaussianBlur4874"
         stdDeviation="0.71867837" />
    </filter>
    <filter
       x="-0.26379904"
       y="-0.20282076"
       width="1.5275981"
       height="1.4056416"
       color-interpolation-filters="sRGB"
       id="filter4876">
      <feGaussianBlur
         id="feGaussianBlur4878"
         stdDeviation="0.71867837" />
    </filter>
    <filter
       x="-0.20087193"
       y="-0.26694953"
       width="1.4017439"
       height="1.5338991"
       color-interpolation-filters="sRGB"
       id="filter4880">
      <feGaussianBlur
         id="feGaussianBlur4882"
         stdDeviation="0.71867837" />
    </filter>
    <filter
       x="-0.21335717"
       y="-0.31337535"
       width="1.4267143"
       height="1.6267507"
       color-interpolation-filters="sRGB"
       id="filter4884">
      <feGaussianBlur
         id="feGaussianBlur4886"
         stdDeviation="0.71867837" />
    </filter>
    <filter
       color-interpolation-filters="sRGB"
       id="filter4888">
      <feGaussianBlur
         id="feGaussianBlur4890"
         stdDeviation="0.71867837" />
    </filter>
    <filter
       x="-0.1633821"
       y="-0.12388626"
       width="1.3267642"
       height="1.2477725"
       color-interpolation-filters="sRGB"
       id="filter4892">
      <feGaussianBlur
         id="feGaussianBlur4894"
         stdDeviation="0.71867837" />
    </filter>
    <filter
       x="-0.29638693"
       y="-0.10883191"
       width="1.5927738"
       height="1.2176638"
       color-interpolation-filters="sRGB"
       id="filter4896">
      <feGaussianBlur
         id="feGaussianBlur4898"
         stdDeviation="0.71867837" />
    </filter>
    <filter
       x="-0.12007949"
       y="-0.35386461"
       width="1.240159"
       height="1.7077292"
       color-interpolation-filters="sRGB"
       id="filter4900">
      <feGaussianBlur
         id="feGaussianBlur4902"
         stdDeviation="0.71867837" />
    </filter>
    <filter
       x="-0.077405594"
       y="-0.12924246"
       width="1.1548111"
       height="1.258485"
       color-interpolation-filters="sRGB"
       id="filter4904">
      <feGaussianBlur
         id="feGaussianBlur4906"
         stdDeviation="0.71867837" />
    </filter>
    <filter
       color-interpolation-filters="sRGB"
       id="filter4908">
      <feGaussianBlur
         id="feGaussianBlur4910"
         stdDeviation="0.71867837" />
    </filter>
    <linearGradient
       x1="9.0015383"
       y1="97.984612"
       x2="88.389229"
       y2="97.984612"
       id="linearGradient4947"
       xlink:href="#linearGradient4941"
       gradientUnits="userSpaceOnUse" />
    <linearGradient
       x1="-88.092308"
       y1="53.446156"
       x2="-8.7046156"
       y2="53.446156"
       id="linearGradient4989"
       xlink:href="#linearGradient4983"
       gradientUnits="userSpaceOnUse"
       gradientTransform="matrix(-1,0,0,1,78.981538,44.835385)" />
  </defs>
  <g
     id="g3359">
    <path
       d="m 88.186154,9.79846 -78.3876925,0 0,71.26154 c 2.4151615,47.20885 27.3187405,87.10414 78.3876925,104.81385 z"
       id="path3005"
       style="fill:#ffbe00;fill-opacity:1;stroke:#000000;stroke-width:1px;stroke-linecap:butt;stroke-linejoin:miter;stroke-opacity:0" />
    <path
       d="m 88.260384,9.8726897 78.387696,0 0,71.2615403 c -2.41516,47.20885 -27.31874,87.10414 -78.387696,104.81385 L 82.321922,85.142693 z"
       id="path3005-1"
       style="fill:#ffbe00;fill-opacity:1;stroke:#000000;stroke-width:1px;stroke-linecap:butt;stroke-linejoin:miter;stroke-opacity:0" />
    <path
       d="m 40.243284,20.272538 c -2.56279,-0.43135 -5.11598,-0.69744 -7.58305,0.51576 -1.7304,1.04228 -1.62637,2.82378 1.96868,4.19973 l -1.96868,3.16821 c -0.68925,-2.25176 -1.48167,-3.99722 -2.84364,-2.94718 l -3.49988,3.16823 c -1.14798,1.63491 -1.19693,2.87962 1.23954,3.2419 l 3.20822,0.95783 c 1.0976,0.96012 1.50457,2.87596 -0.58332,2.94718 -1.36545,-0.3208 -2.98428,-1.33658 -3.71861,0.0736 -0.0283,2.32619 0.62114,4.623851 2.91656,6.852191 1.62633,1.84492 2.52697,-0.4166 3.71861,-1.03151 0.1469,4.32404 -1.04963,6.74756 -4.30192,6.26277 2.0531,2.87079 4.82825,3.7517 7.94762,3.68397 -1.79645,3.58025 -4.02891,3.19524 -6.19769,3.38926 1.66182,2.29667 4.26855,3.35205 7.87471,3.09454 -0.59418,4.16111 -3.34895,3.78883 -5.90603,3.83133 1.58055,1.92699 5.88031,4.04011 10.426704,2.72615 -1.11436,3.61859 -3.626194,4.05988 -6.270604,4.19973 2.62058,1.66985 5.596024,2.55082 9.187164,2.06303 -1.61037,8.82403 -5.158174,8.97798 -9.478824,5.67332 1.59458,7.16193 10.815544,7.37656 14.436974,2.06303 1.07566,3.04262 -0.11443,5.0078 -2.33326,6.4838 3.21376,-0.29967 6.02198,-2.03364 8.45802,-5.08389 l 0.94788,1.39991 c -2.5323,3.45522 -5.05105,6.91866 -8.53093,9.79938 l -10.207954,0.44208 c 0.64674,-2.73383 1.04338,-5.2479 -2.69781,-4.12606 l -3.57279,1.32624 c -0.90631,-0.22775 -4.85226,2.00098 -0.29165,3.16821 1.8708,1.74039 0.81218,2.1857 -0.36458,2.57879 l -2.47907,-0.44208 c -1.68238,-2.44309 -2.46524,-1.55331 -2.98948,0.29471 l 0.29166,6.557481 c 0.45023,0.82874 1.01322,1.23974 2.04159,-0.0737 l 0.0729,-0.884151 c 1.54743,-1.13473 2.17524,-0.59678 2.77073,0 1.39189,1.170081 2.14226,2.090821 1.02079,2.284071 -2.29629,-0.91426 -3.17871,-0.1617 -4.37484,0.22104 -0.92356,0.37147 -2.3531,0.5512 -1.82285,1.47358 l 5.24981,6.33644 c 2.31907,-0.38551 1.76094,-2.8855 2.1145,-4.71549 1.34612,-1.89116 2.23041,-0.74897 3.20822,-0.22103 l -0.29166,2.1367 c -0.75115,1.08298 -1.48496,2.16048 0.80206,2.28407 l 6.416434,-0.66312 c 2.73485,0.1902 0.0756,-1.34086 -0.5104,-2.21038 l -0.0729,-2.57879 c 1.42613,-0.63614 3.09712,-0.34604 3.15678,0.92503 0.076,1.62038 0.0244,3.82899 2.60342,4.23254 -1.29916,-1.81864 -0.70259,-4.07935 0.51041,-6.4838 2.20648,-0.16133 3.67269,1.17344 3.93735,4.93653 3.46346,-2.573 3.11178,-5.59955 3.42696,-8.546821 1.56851,2.717811 3.59037,4.290391 6.70808,3.094541 -2.74268,-2.358631 -1.32925,-4.178631 -1.38537,-6.189091 1.52044,2.23695 3.06942,4.364301 5.54147,2.94719 -1.33527,-3.7854 -0.12338,-5.60252 1.82284,-6.8522 1.42675,3.24272 4.08164,3.01049 6.41644,3.68397 -1.73374,-2.93717 -1.80156,-5.12616 -1.82285,-7.29426 1.15303,2.89866 3.38998,3.78929 5.68729,4.56812 -1.0567,-2.07209 -0.52453,-3.52664 0.94251,-4.61787 1.93756,-1.80611 1.05716,-3.61223 1.44363,-5.41833 5.99641,-0.58057 12.1402,-2.70013 17.01412,8.44008 -8.84386,1.26586 -17.55833,2.11769 -28.66622,10.628261 -5.83852,2.59146 -11.4381,7.0321 -17.27695,11.92551 -2.76484,2.31715 -6.30728,3.08008 -9.63631,3.28749 3.85977,5.59732 10.39349,5.25017 17.11725,4.48053 0.3153,2.35369 0.009,4.78452 4.94956,6.56452 -2.40641,6.30284 -6.33176,7.80913 -10.93028,7.1897 0.16078,-2.06395 0.9277,-4.51072 -2.06233,-4.58474 l -5.8776,2.50076 c -1.08773,1.01591 -1.05993,3.00884 0.72181,3.33436 0.4855,1.48535 1.47278,3.15324 -1.3405,3.43855 -1.478,-0.66705 -2.95599,-3.21802 -4.43399,-0.20839 -0.4321,1.88271 -0.58349,3.83865 0.6187,6.14771 1.107,2.01405 2.12364,1.38028 3.09347,-0.62519 3.13999,-0.716 3.82967,1.49736 2.5779,3.12596 -1.08657,0.35339 -2.66031,0.29022 -2.06232,2.08397 l 3.60906,3.95955 c 1.62263,0.30322 2.3974,-0.4788 1.9592,-2.81336 0.83681,-3.90756 5.26791,-2.21059 4.43398,0.31259 -0.93075,1.15488 -1.48847,2.27594 -0.20622,3.23016 l 4.84644,0.20839 c 1.82065,-1.0612 1.66702,-2.17491 -0.20623,-3.33435 -0.47969,-2.73594 0.87337,-4.74232 2.26855,-2.70916 0.15515,2.83903 2.16982,4.22608 4.43398,5.41832 -1.44876,0.0586 -2.8164,-7.98447 -1.64985,-7.60649 -0.54868,1.40297 7.24935,6.91116 7.21812,5.83512 -1.41891,-1.56102 -2.8814,-2.93878 -1.85609,-5.52253 1.6352,-2.27798 0.9102,-5.1836 0.82492,-7.91909 0.85516,2.98397 0.4827,6.68611 6.29007,6.77291 -1.60852,-3.17916 -1.65689,-5.3073 -1.64985,-7.3981 1.19571,-1.77138 0.46648,-3.54275 0.41246,-5.31413 0.63214,0.70222 2.09729,-0.27908 1.75297,2.39657 -0.30361,2.95701 1.46776,4.89496 4.84646,6.04351 -0.52009,-1.73208 -1.95584,-2.5389 -0.72182,-6.04351 2.77087,-4.27301 3.12455,-8.33049 -3.40282,-11.77444 -10.45018,-17.51908 7.98029,-9.42793 16.08608,-9.48207 5.227252,14.83011 1.41023,16.42409 -4.5371,14.90039 4.69125,3.60834 9.514722,4.84522 14.642462,0.62519 l 4.5371,-1.25038 4.33086,2.70916 c 1.32848,0.96733 2.9454,0.67158 3.50595,5.00154 -0.19251,7.72706 -3.01164,8.69796 -6.18696,8.75268 -1.08462,-1.86534 -1.86246,-5.38397 -3.71217,-3.12596 l -4.74333,4.16794 c -0.47734,1.16651 -0.83619,2.2786 1.64985,2.08398 2.41861,1.53652 1.03253,2.18581 0,2.91756 -1.53342,-0.0461 -3.22112,-4.38258 -4.74333,0.41679 l 1.44362,7.5023 c 1.57109,1.99822 2.68495,0.87777 3.71217,-0.83359 0.96695,-3.59871 5.23447,-2.23331 3.29971,1.25038 -1.41972,0.55615 -2.07906,1.28614 -0.61869,2.50077 l 4.33087,1.66718 c 2.56994,0.3954 1.52908,-1.03354 1.23739,-2.08397 -0.53976,-3.76012 2.23211,-4.48514 3.29971,-1.45878 -1.50804,5.35316 4.28644,1.56407 6.59941,0.41679 2.06629,-1.55967 0.78248,-2.08904 -0.20623,-2.70916 -3.37749,-4.12839 0.8884,-9.3616 1.64986,-3.12596 -0.56684,1.13954 1.14915,3.84428 2.68101,3.75115 -0.65209,-1.61557 -1.29028,-3.32482 0.20623,-5.62673 2.25481,-2.4313 1.58278,-4.8626 1.64986,-7.2939 2.02597,-0.0655 2.70047,2.60037 3.09348,5.83512 1.17299,-3.61221 1.63899,-7.22443 0.61869,-10.83665 0.84971,2.58656 1.87472,5.01567 5.1558,5.41833 -1.68868,-1.73485 -2.49648,-3.82574 -1.44363,-6.66871 1.1451,-3.03936 0.43231,-5.22536 -1.44362,-6.87711 3.72534,-2.24711 4.97966,3.30877 6.59942,7.7107 2.38106,-6.59753 -0.1013,-18.58943 -9.0742,-14.37941 -2.91705,-4.83683 -6.09412,-5.20698 -9.28043,-5.41832 -2.78371,-4.0093 -4.71685,-3.29137 -7.01189,-4.58474 l 3.71218,-9.58627 c 4.88082,5.38866 9.76164,7.39993 14.64246,7.2939 6.56746,2.18944 8.44663,8.64266 11.34275,14.17101 0.46778,-5.65782 2.85795,-11.54418 -2.88725,-16.46338 7.64049,-4.05882 8.14548,-14.360961 -1.03116,-22.298501 -6.8386,-8.52049 0.38976,-13.33114 7.34886,-8.80227 -0.71173,-5.74656 -11.06049,-10.72041 -14.43697,-0.14736 -4.0191,-6.08133 0.4719,-15.32682 11.52041,-9.13625 -1.36424,-6.9757 -11.69255,-10.97164 -17.2077,0 0.6126,-4.99693 2.85347,-9.86327 12.37342,-14.80372 8.17068,-4.24023 10.34039,-14.42028 7.75084,-22.478131 -3.89104,11.532471 -10.20715,19.214101 -19.54094,22.103861 L 142.39575,36.187218 C 150.08529,16.934409 131.88509,8.4092585 117.605,14.083359 c -8.79351,4.14657 -11.34853,10.890739 -9.18716,19.598749 -0.13803,6.952561 -1.95568,12.692791 -4.81232,17.683091 3.20095,-1.66385 6.34332,-3.47571 8.02053,-8.9889 -1.04262,5.27852 -4.09201,10.38807 -2.18741,15.91478 2.3344,3.99891 3.81883,8.61132 4.22901,13.99911 0.45079,-3.7545 0.89207,-7.51477 0,-12.08344 -1.15878,-3.86322 -0.10618,-6.32982 0.87496,-8.84155 3.28141,-5.95222 2.68024,-8.38596 3.49987,-12.2308 3.18551,5.30493 1.29118,10.60985 0.87497,15.91478 4.05231,-5.99225 4.93266,-12.72416 3.93735,-19.893471 3.10395,3.17548 6.53082,-0.82189 7.43723,-3.24191 -5.91112,0.95585 -7.57095,-4.06883 -4.52067,-6.48379 8.05063,-5.95019 12.93356,4.95615 10.35379,10.60985 l -13.99948,24.166891 c -3.41951,7.68294 -5.95335,15.49685 6.2706,25.49312 l 9.04133,9.72569 c 5.59148,9.901991 -0.69222,15.112461 -8.02054,12.378161 -6.05857,-5.08812 -7.00327,-9.027891 -9.9163,-13.409671 -2.21251,-10.78019 -11.19575,-21.13276 -19.39511,-31.53484 3.16553,-0.3173 4.96285,-2.94117 5.68729,-4.56813 -4.75216,0.67309 -6.350232,-2.63784 -7.874702,-6.04172 2.358142,9.9e-4 3.908292,-1.63058 5.103972,-3.9787 -1.97909,0.54747 -3.338102,-0.19098 -3.937352,-2.5051 2.196732,0.2328 3.875412,-0.18876 4.520662,-1.91567 -3.20473,-2.181 -2.47009,-5.854791 -2.77072,-9.136271 3.10704,-2.29734 3.92435,-5.17312 3.93734,-8.2521 -1.24267,1.84316 -2.65202,3.09684 -4.66649,2.21039 3.39997,-2.3184 6.43712,-4.85065 5.2498,-9.873059 l -6.124762,0.736789 c 0.58086,-2.048289 -0.047,-3.747609 -2.18742,-5.010209 -0.48045,2.1544 -1.70918,3.04858 -3.35405,3.24191 -7.68356,-0.48704 -16.88245,-2.28655 -16.77021,3.978689 l -3.79153,2.5051 -6.85391,0.14737 -0.29165,5.45228 c -1.36265,1.41229 -1.7387,2.76227 0,3.97869 0.11989,1.52271 0.37797,3.04542 1.45827,4.56813 -0.0497,-1.29697 -0.0305,-2.58003 0.87497,-3.68398 9.06834,-0.13395 8.66226,6.804811 5.54146,11.199301 l -5.60995,0.061 c -0.68046,-0.90872 -0.55574,-1.8988 -0.58331,-2.8735 -0.5732,0.73977 -1.36333,1.56667 -1.53561,2.95981 l -1.45829,0 c -0.23161,2.77216 0.79003,4.82068 2.47908,6.4838 l 0.87497,-2.06302 9.18716,0.14736 c -2.35374,2.71131 -4.72785,5.39977 -10.49961,4.27341 -4.03174,-0.83075 -7.48866,-0.79019 -10.35378,0.14736 -10.55076,-6.56031 -10.95626,-14.08172 -9.18716,-21.809141 3.03927,-1.99477 5.75966,-4.00146 3.6457,-6.18909 l -3.79153,-3.24189 c -2.32451,-1.48624 -3.45626,-0.81565 -3.93735,1.03151 -1.23839,4.83371 -2.895344,2.34688 -3.062404,0.14736 1.807454,-2.53835 2.102614,-4.23402 0.21875,-4.71549 z"
       id="path3793"
       style="fill:#634a00;fill-opacity:1;stroke:#000000;stroke-width:0.98740387px;stroke-linecap:butt;stroke-linejoin:miter;stroke-opacity:0;filter:url(#filter4908)" />
    <path
       d="m 71.304628,45.940649 c -2.49462,-3.52977 -5.79808,-5.7472 -10.42669,-4.96416 -5.46881,0.47969 -9.13444,-0.70428 -10.13504,-4.347101 -0.74757,-5.46866 4.61067,-4.83431 4.44775,-1.32623 0.95572,2.39895 3.4192,3.27431 7.2914,2.72615 7.10994,-0.26086 8.61385,4.312441 10.47226,7.892921 z"
       id="path3960"
       style="fill:#634a00;fill-opacity:1;stroke:#000000;stroke-width:0.98740387px;stroke-linecap:butt;stroke-linejoin:miter;stroke-opacity:0;filter:url(#filter4904)" />
    <path
       d="m 106.01168,128.58145 c -3.59365,4.6736 -8.638122,4.4159 -14.364052,1.84198 4.36431,4.21886 13.297882,4.41628 14.364052,-1.84198 z"
       id="path4111"
       style="fill:#634a00;fill-opacity:1;stroke:#000000;stroke-width:0.98740387px;stroke-linecap:butt;stroke-linejoin:miter;stroke-opacity:0;filter:url(#filter4900)" />
    <path
       d="m 124.09434,128.13937 c 5.98095,2.52966 4.03627,5.05933 2.04159,7.58899 0,0 -0.0729,8.54683 0,8.25211 0.0729,-0.29472 1.23954,-7.66267 1.23954,-7.66267 5.2483,-4.29304 1.46481,-7.86839 -3.28113,-8.17843 z"
       id="path4113"
       style="fill:#634a00;fill-opacity:1;stroke:#000000;stroke-width:0.98740387px;stroke-linecap:butt;stroke-linejoin:miter;stroke-opacity:0;filter:url(#filter4896)" />
    <path
       d="m 72.654458,126.33873 c 3.28844,5.64659 0.23151,6.49441 -2.86543,7.31196 0,0 -5.12626,6.79855 -4.89316,6.60673 0.23311,-0.19183 5.53603,-5.38431 5.53603,-5.38431 6.74745,-0.25934 5.83838,-5.41262 2.22256,-8.53438 z"
       id="path4113-2"
       style="fill:#634a00;fill-opacity:1;stroke:#000000;stroke-width:0.98740387px;stroke-linecap:butt;stroke-linejoin:miter;stroke-opacity:0;filter:url(#filter4892)" />
    <path
       d="m 44.180638,117.67688 c 4.60646,-0.5143 8.37076,-2.73059 11.88498,-5.45229 4.49434,-4.34796 9.49481,-7.16161 14.52901,-9.87298 14.44798,-10.721211 24.05316,-9.575231 28.97557,-10.836651 -11.60766,2.13809 -20.09916,6.24422 -27.32571,11.149251 -4.51363,2.10922 -10.83072,5.74917 -14.53934,10.21146 -4.50817,4.14465 -9.01634,5.3592 -13.52451,4.80121 z"
       id="path4154"
       style="fill:#634a00;fill-opacity:1;stroke:#000000;stroke-width:0.98740387px;stroke-linecap:butt;stroke-linejoin:miter;stroke-opacity:0;filter:url(#filter4888)" />
    <path
       d="m 26.925044,94.380409 c -4.65923,-1.37606 -6.74913,3.48703 -6.23852,5.26204 1.70717,-1.44655 4.1594,-1.91808 6.59943,-0.31261 2.00787,-0.90063 1.85573,-4.88258 -0.36091,-4.94943 z"
       id="path4156"
       style="fill:#634a00;fill-opacity:1;stroke:#000000;stroke-width:0.98740387px;stroke-linecap:butt;stroke-linejoin:miter;stroke-opacity:0;filter:url(#filter4884)" />
    <path
       d="m 36.819884,86.711859 c -2.44237,-4.239 -7.27104,-2.16506 -8.10977,-0.52233 2.22373,0.13815 4.32374,1.50181 5.00007,4.36361 2.06997,0.74331 4.67209,-2.25096 3.1097,-3.84128 z"
       id="path4156-2"
       style="fill:#634a00;fill-opacity:1;stroke:#000000;stroke-width:0.98740387px;stroke-linecap:butt;stroke-linejoin:miter;stroke-opacity:0;filter:url(#filter4880)" />
    <path
       d="m 28.486344,104.62393 c -4.39169,2.08954 -2.76755,7.13096 -1.22109,8.11832 0.32983,-2.22652 1.85704,-4.22178 4.73724,-4.65342 0.91304,-2.01905 -1.81228,-4.89922 -3.51615,-3.4649 z"
       id="path4156-1"
       style="fill:#634a00;fill-opacity:1;stroke:#000000;stroke-width:0.98740387px;stroke-linecap:butt;stroke-linejoin:miter;stroke-opacity:0;filter:url(#filter4876)" />
    <path
       d="m 42.745078,110.09176 c -0.83153,4.83261 -6.072534,4.58447 -7.424144,3.33888 2.03747,-0.91077 3.53731,-2.92714 3.18681,-5.84802 1.6851,-1.42417 5.155094,0.46913 4.237334,2.50914 z"
       id="path4156-6"
       style="fill:#634a00;fill-opacity:1;stroke:#000000;stroke-width:0.98740387px;stroke-linecap:butt;stroke-linejoin:miter;stroke-opacity:0;filter:url(#filter4872)" />
    <path
       d="m 50.466998,26.023978 c 1.48664,-4.66942 -3.26794,-6.91134 -5.03761,-6.44332 1.38506,1.76339 1.78555,4.25316 0.13167,6.67472 0.83693,2.05244 4.78017,2.00591 4.90594,-0.2314 z"
       id="path4156-8"
       style="fill:#634a00;fill-opacity:1;stroke:#000000;stroke-width:0.98740387px;stroke-linecap:butt;stroke-linejoin:miter;stroke-opacity:0;filter:url(#filter4868)" />
    <path
       d="m 38.844424,20.164998 c -0.65816,-4.859829 -5.90461,-4.803249 -7.29988,-3.607849 2.00357,0.9846 3.4303,3.054429 2.97556,5.960599 1.63307,1.48478 5.16851,-0.28055 4.32432,-2.35275 z"
       id="path4156-5"
       style="fill:#634a00;fill-opacity:1;stroke:#000000;stroke-width:0.98740387px;stroke-linecap:butt;stroke-linejoin:miter;stroke-opacity:0;filter:url(#filter4864)" />
    <path
       d="m 29.625754,25.248848 c -2.90171,-3.93223 -7.4669,-1.31907 -8.11614,0.40907 2.22491,-0.11721 4.46423,0.99736 5.45692,3.76336 2.13997,0.50165 4.38978,-2.77113 2.65922,-4.17243 z"
       id="path4156-7"
       style="fill:#634a00;fill-opacity:1;stroke:#000000;stroke-width:0.98740387px;stroke-linecap:butt;stroke-linejoin:miter;stroke-opacity:0;filter:url(#filter4860)" />
    <path
       d="m 28.150854,41.497159 c -4.65923,1.37607 -6.74912,-3.487021 -6.23852,-5.262031 1.70717,1.44655 4.15941,1.91808 6.59943,0.3126 2.00787,0.90064 1.85574,4.882581 -0.36091,4.949431 z"
       id="path4156-61"
       style="fill:#634a00;fill-opacity:1;stroke:#000000;stroke-width:0.98740387px;stroke-linecap:butt;stroke-linejoin:miter;stroke-opacity:0;filter:url(#filter4856)" />
    <path
       d="m 52.004628,131.34804 c -3.10917,-3.76685 -7.52687,-0.90653 -8.08209,0.85475 2.2153,-0.23938 4.51133,0.75041 5.6515,3.45772 2.1638,0.38324 4.23405,-3.0084 2.43059,-4.31247 z"
       id="path4156-89"
       style="fill:#634a00;fill-opacity:1;stroke:#000000;stroke-width:0.98740387px;stroke-linecap:butt;stroke-linejoin:miter;stroke-opacity:0;filter:url(#filter4852)" />
    <path
       d="m 43.375108,140.89583 c -4.659224,-1.37606 -6.749124,3.48703 -6.238514,5.26204 1.70717,-1.44655 4.159404,-1.91808 6.599424,-0.31261 2.00787,-0.90063 1.85574,-4.88258 -0.36091,-4.94943 z"
       id="path4156-27"
       style="fill:#634a00;fill-opacity:1;stroke:#000000;stroke-width:0.98740387px;stroke-linecap:butt;stroke-linejoin:miter;stroke-opacity:0;filter:url(#filter4848)" />
    <path
       d="m 48.490988,150.05874 c -4.66147,1.36826 -3.83923,6.60459 -2.46501,7.82464 0.67105,-2.14677 2.48883,-3.87554 5.40038,-3.84574 1.21487,-1.84952 -1.03011,-5.12568 -2.93537,-3.9789 z"
       id="path4156-9"
       style="fill:#634a00;fill-opacity:1;stroke:#000000;stroke-width:0.98740387px;stroke-linecap:butt;stroke-linejoin:miter;stroke-opacity:0;filter:url(#filter4844)" />
    <path
       d="m 61.147418,155.57379 c 0.83686,4.83167 -4.17772,6.39138 -5.86686,5.68182 1.61195,-1.5541 2.34756,-3.96453 1.03905,-6.59296 1.10837,-1.9166 5.00779,-1.32239 4.82781,0.91114 z"
       id="path4156-54"
       style="fill:#634a00;fill-opacity:1;stroke:#000000;stroke-width:0.98740387px;stroke-linecap:butt;stroke-linejoin:miter;stroke-opacity:0;filter:url(#filter4840)" />
    <path
       d="m 106.89451,142.35461 c -4.65922,-1.37606 -6.74911,3.48703 -6.23851,5.26204 1.70717,-1.44655 4.1594,-1.91808 6.59942,-0.31261 2.00787,-0.90063 1.85574,-4.88258 -0.36091,-4.94943 z"
       id="path4156-3"
       style="fill:#634a00;fill-opacity:1;stroke:#000000;stroke-width:0.98740387px;stroke-linecap:butt;stroke-linejoin:miter;stroke-opacity:0;filter:url(#filter4836)" />
    <path
       d="m 102.33915,152.94884 c -4.836692,0.41565 -5.049102,5.71314 -3.939012,7.18235 1.07555,-1.9716 3.194162,-3.30557 6.043102,-2.69803 1.55095,-1.57211 -0.0129,-5.23028 -2.10409,-4.48432 z"
       id="path4156-12"
       style="fill:#634a00;fill-opacity:1;stroke:#000000;stroke-width:0.98740387px;stroke-linecap:butt;stroke-linejoin:miter;stroke-opacity:0;filter:url(#filter4832)" />
    <path
       d="m 109.44263,161.26131 c -3.35195,3.54787 -0.0396,7.65963 1.75496,8.01777 -0.48603,-2.1971 0.22737,-4.61433 2.76033,-6.06542 0.13197,-2.21585 -3.43712,-3.9106 -4.51529,-1.95235 z"
       id="path4156-33"
       style="fill:#634a00;fill-opacity:1;stroke:#000000;stroke-width:0.98740387px;stroke-linecap:butt;stroke-linejoin:miter;stroke-opacity:0;filter:url(#filter4828)" />
    <path
       d="m 123.52537,161.54922 c 0.59613,4.86799 -4.48951,6.17175 -6.14132,5.37752 1.68701,-1.4705 2.54126,-3.84064 1.36478,-6.53204 1.20204,-1.85806 5.06709,-1.06708 4.77654,1.15452 z"
       id="path4156-4"
       style="fill:#634a00;fill-opacity:1;stroke:#000000;stroke-width:0.98740387px;stroke-linecap:butt;stroke-linejoin:miter;stroke-opacity:0;filter:url(#filter4824)" />
    <path
       d="m 39.298592,19.429003 c -2.56279,-0.43135 -5.11598,-0.69744 -7.58305,0.51576 -1.7304,1.04228 -1.62637,2.82378 1.96868,4.19973 l -1.96868,3.16821 c -0.68925,-2.25176 -1.48167,-3.99722 -2.843639,-2.94718 l -3.49988,3.16823 c -1.14798,1.63491 -1.19693,2.87962 1.23954,3.2419 l 3.208219,0.95783 c 1.0976,0.96012 1.50457,2.87596 -0.58332,2.94718 -1.365449,-0.3208 -2.984279,-1.33658 -3.718609,0.0736 -0.0283,2.32619 0.62114,4.62385 2.91656,6.85219 1.626329,1.84492 2.526969,-0.4166 3.718609,-1.03151 0.1469,4.32404 -1.04963,6.74756 -4.301919,6.26277 2.053099,2.87079 4.828249,3.7517 7.947619,3.68397 -1.79645,3.58025 -4.02891,3.19524 -6.19769,3.38926 1.66182,2.29667 4.26855,3.35205 7.87471,3.09454 -0.59418,4.16111 -3.34895,3.78883 -5.90603,3.83133 1.58055,1.92699 5.88031,4.04011 10.4267,2.72615 -1.11436,3.61859 -3.62619,4.05988 -6.2706,4.19973 2.62058,1.66985 5.59602,2.55082 9.18716,2.06303 -1.61037,8.82403 -5.15817,8.97798 -9.47882,5.67332 1.59458,7.16193 10.81554,7.37656 14.43697,2.06303 1.07566,3.04262 -0.11443,5.0078 -2.33326,6.4838 3.21376,-0.29967 6.02198,-2.03364 8.45802,-5.08389 l 0.94788,1.39991 c -2.5323,3.45522 -5.05105,6.91866 -8.53093,9.79938 l -10.20795,0.44208 c 0.64674,-2.73383 1.04338,-5.2479 -2.69781,-4.12606 l -3.57279,1.32624 c -0.90631,-0.22775 -4.852259,2.00098 -0.29165,3.16821 1.8708,1.74039 0.81218,2.1857 -0.36458,2.57879 l -2.479069,-0.44208 c -1.68238,-2.44309 -2.46524,-1.55331 -2.98948,0.29471 l 0.29166,6.55748 c 0.45023,0.828737 1.01322,1.239737 2.04159,-0.0737 l 0.0729,-0.88415 c 1.547429,-1.13473 2.175239,-0.59678 2.770729,0 1.39189,1.170077 2.14226,2.090817 1.02079,2.284067 -2.29629,-0.91426 -3.178709,-0.1617 -4.374839,0.22104 -0.92356,0.37147 -2.3531,0.55121 -1.82285,1.47359 l 5.249809,6.33644 c 2.31907,-0.38551 1.76094,-2.88551 2.1145,-4.71549 1.34612,-1.89117 2.23041,-0.74898 3.20822,-0.22104 l -0.29166,2.13671 c -0.75115,1.08298 -1.48496,2.16048 0.80206,2.28406 l 6.41643,-0.66311 c 2.73485,0.1902 0.0756,-1.34087 -0.5104,-2.21039 l -0.0729,-2.57878 c 1.42613,-0.63615 3.09712,-0.34605 3.15678,0.92502 0.076,1.62038 0.0244,3.82899 2.60342,4.23254 -1.29916,-1.81863 -0.70259,-4.07934 0.51041,-6.4838 2.20648,-0.16133 3.67269,1.17344 3.93735,4.93653 3.46346,-2.57299 3.11178,-5.59955 3.42696,-8.546817 1.56851,2.717807 3.59037,4.290387 6.70808,3.094537 -2.74268,-2.358627 -1.32925,-4.178627 -1.38537,-6.189087 1.52044,2.23695 3.06942,4.3643 5.54147,2.94719 -1.33527,-3.7854 -0.12338,-5.60252 1.82284,-6.8522 1.42675,3.24272 4.08164,3.01049 6.41644,3.68397 -1.73374,-2.93717 -1.80156,-5.12616 -1.82285,-7.29426 1.15303,2.89866 3.38998,3.78929 5.68729,4.56812 -1.0567,-2.07209 -0.52453,-3.52664 0.94251,-4.61787 1.93756,-1.80611 1.05716,-3.61223 1.44363,-5.41833 5.99641,-0.58057 12.1402,-2.70013 17.014118,8.44008 -8.843858,1.26586 -17.558328,2.11769 -28.666218,10.628257 -5.83852,2.59146 -11.4381,7.0321 -17.27695,11.92551 -2.76484,2.31716 -6.30728,3.08009 -9.63631,3.28749 3.85977,5.59732 10.39349,5.25017 17.11725,4.48054 0.3153,2.35369 0.009,4.78452 4.94956,6.56451 -2.40641,6.30284 -6.33176,7.80914 -10.93028,7.1897 0.16078,-2.06394 0.9277,-4.51071 -2.06233,-4.58473 l -5.8776,2.50076 c -1.08773,1.0159 -1.05993,3.00883 0.72181,3.33436 0.4855,1.48535 1.47278,3.15323 -1.3405,3.43855 -1.478,-0.66705 -2.95599,-3.21803 -4.43399,-0.2084 -0.4321,1.88271 -0.58349,3.83866 0.6187,6.14772 1.107,2.01405 2.12364,1.38028 3.09347,-0.62519 3.13999,-0.716 3.82967,1.49736 2.5779,3.12596 -1.08657,0.35338 -2.66031,0.29022 -2.06232,2.08397 l 3.60906,3.95954 c 1.62263,0.30322 2.3974,-0.47879 1.9592,-2.81336 0.83681,-3.90755 5.26791,-2.21058 4.43398,0.3126 -0.93075,1.15488 -1.48847,2.27594 -0.20622,3.23015 l 4.84644,0.2084 c 1.82065,-1.06121 1.66702,-2.17492 -0.20623,-3.33435 -0.47969,-2.73594 0.87337,-4.74232 2.26855,-2.70917 0.15515,2.83903 2.16982,4.22609 4.43398,5.41833 -1.44876,0.0586 -2.8164,-7.98448 -1.64985,-7.6065 -0.54868,1.40297 7.24935,6.91116 7.21812,5.83512 -1.41891,-1.56101 -2.8814,-2.93878 -1.85609,-5.52252 1.6352,-2.27799 0.9102,-5.1836 0.82492,-7.91909 0.85516,2.98396 0.4827,6.68611 6.29007,6.7729 -1.60852,-3.17915 -1.65689,-5.30729 -1.64985,-7.3981 1.19571,-1.77137 0.46648,-3.54275 0.41246,-5.31412 0.63214,0.70222 2.09729,-0.27908 1.75297,2.39656 -0.30361,2.95702 1.46776,4.89496 4.84646,6.04352 -0.52009,-1.73208 -1.95584,-2.5389 -0.72182,-6.04352 2.77087,-4.273 3.12455,-8.33048 -3.40282,-11.77444 -10.45018,-17.51908 7.98029,-9.42792 16.08608,-9.48207 5.227248,14.83011 1.410228,16.42409 -4.5371,14.9004 4.69125,3.60834 9.514718,4.84521 14.642458,0.62519 l 4.5371,-1.25038 4.33087,2.70916 c 1.32847,0.96733 2.9454,0.67157 3.50594,5.00153 -0.1925,7.72707 -3.01163,8.69797 -6.18695,8.75269 -1.08462,-1.86534 -1.86247,-5.38397 -3.71218,-3.12596 l -4.74333,4.16794 c -0.47734,1.16651 -0.83619,2.2786 1.64986,2.08397 2.41861,1.53653 1.03253,2.18582 0,2.91756 -1.53343,-0.0461 -3.22113,-4.38257 -4.74334,0.4168 l 1.44362,7.5023 c 1.57109,1.99822 2.68495,0.87777 3.71218,-0.83359 0.96695,-3.59871 5.23447,-2.23331 3.29971,1.25038 -1.41973,0.55615 -2.07907,1.28614 -0.6187,2.50077 l 4.33087,1.66717 c 2.56994,0.39541 1.52909,-1.03353 1.23739,-2.08397 -0.53976,-3.76011 2.23211,-4.48514 3.29971,-1.45878 -1.50803,5.35317 4.28644,1.56408 6.59942,0.4168 2.06629,-1.55967 0.78248,-2.08904 -0.20623,-2.70917 -3.37749,-4.12838 0.8884,-9.36159 1.64986,-3.12595 -0.56684,1.13953 1.14915,3.84428 2.68101,3.75115 -0.65209,-1.61557 -1.29028,-3.32483 0.20623,-5.62673 2.25481,-2.4313 1.58278,-4.8626 1.64986,-7.2939 2.02597,-0.0655 2.70047,2.60036 3.09347,5.83512 1.173,-3.61222 1.639,-7.22443 0.6187,-10.83665 0.84971,2.58656 1.87472,5.01566 5.1558,5.41832 -1.68868,-1.73484 -2.49648,-3.82574 -1.44363,-6.66871 1.14509,-3.03935 0.43231,-5.22535 -1.44362,-6.8771 3.72534,-2.24711 4.97966,3.30877 6.59942,7.71069 2.38106,-6.59752 -0.1013,-18.58943 -9.0742,-14.3794 -2.91705,-4.83684 -6.09412,-5.20698 -9.28043,-5.41833 -2.78371,-4.00929 -4.71686,-3.29137 -7.01189,-4.58474 l 3.71218,-9.58627 c 4.88082,5.38867 9.76164,7.39993 14.64246,7.2939 6.56746,2.18945 8.44663,8.64266 11.34275,14.17101 0.46778,-5.65781 2.85795,-11.54417 -2.88725,-16.46338 7.64049,-4.05882 8.14548,-14.360957 -1.03116,-22.298497 -6.8386,-8.52049 0.38976,-13.33114 7.34886,-8.80227 -0.71173,-5.74656 -11.06049,-10.72041 -14.43697,-0.14736 -4.0191,-6.08133 0.47189,-15.32682 11.52041,-9.13625 -1.36424,-6.9757 -11.69256,-10.97164 -17.2077,0 0.6126,-4.99693 2.85347,-9.86327 12.37342,-14.80372 8.17068,-4.24023 10.34039,-14.42028 7.75084,-22.47813 -3.89104,11.53247 -10.20715,19.2141 -19.54095,22.10386 l 11.81207,-20.18819 c 7.68954,-19.25281 -10.51066,-27.7779597 -24.79075,-22.10386 -8.79351,4.14657 -11.34854,10.89074 -9.18716,19.59875 -0.13803,6.95256 -1.95568,12.69279 -4.81233,17.68309 3.20096,-1.66385 6.34332,-3.47571 8.02054,-8.9889 -1.04262,5.27852 -4.09201,10.38807 -2.18742,15.91478 2.33441,3.99891 3.81884,8.61132 4.22901,13.99911 0.45079,-3.7545 0.89208,-7.51477 0,-12.08344 -1.15878,-3.86322 -0.10617,-6.32982 0.87497,-8.84155 3.2814,-5.95222 2.68024,-8.38596 3.49987,-12.2308 3.18551,5.30493 1.29117,10.60985 0.87497,15.91478 4.05231,-5.99225 4.93266,-12.72416 3.93735,-19.89347 3.10395,3.17548 6.53082,-0.82189 7.43723,-3.24191 -5.91112,0.95585 -7.57095,-4.06883 -4.52067,-6.48379 8.05063,-5.95019 12.93355,4.95615 10.35378,10.60985 l -13.99948,24.16689 c -3.4195,7.68294 -5.95334,15.49685 6.27061,25.49312 l 9.04133,9.72569 c 5.59148,9.901987 -0.69222,15.112457 -8.02054,12.378157 -6.05858,-5.08812 -7.00327,-9.027887 -9.9163,-13.409667 -2.21252,-10.78019 -11.19575,-21.13276 -19.39512,-31.53484 3.16553,-0.3173 4.96286,-2.94117 5.68729,-4.56813 -4.75216,0.67309 -6.35023,-2.63784 -7.8747,-6.04172 2.35814,9.9e-4 3.90829,-1.63058 5.10397,-3.9787 -1.97909,0.54747 -3.3381,-0.19098 -3.93735,-2.5051 2.19673,0.2328 3.87541,-0.18876 4.52066,-1.91567 -3.20473,-2.181 -2.47009,-5.85479 -2.77072,-9.13627 3.10704,-2.29734 3.92436,-5.17312 3.93735,-8.2521 -1.24268,1.84316 -2.65203,3.09684 -4.6665,2.21039 3.39997,-2.3184 6.43713,-4.85065 5.24981,-9.87306 l -6.12477,0.73679 c 0.58086,-2.04829 -0.047,-3.74761 -2.18742,-5.01021 -0.480448,2.1544 -1.709178,3.04858 -3.354048,3.24191 -7.68356,-0.48704 -16.88245,-2.28655 -16.77021,3.97869 l -3.79153,2.5051 -6.85391,0.14737 -0.29165,5.45228 c -1.36265,1.41229 -1.7387,2.76227 0,3.97869 0.11989,1.52271 0.37797,3.04542 1.45827,4.56813 -0.0497,-1.29697 -0.0305,-2.58003 0.87497,-3.68398 9.06834,-0.13395 8.66226,6.80481 5.54146,11.1993 l -5.60995,0.061 c -0.68046,-0.90872 -0.55574,-1.8988 -0.58331,-2.8735 -0.5732,0.73977 -1.36333,1.56667 -1.53561,2.95981 l -1.45829,0 c -0.23161,2.77216 0.79003,4.82068 2.47908,6.4838 l 0.87497,-2.06302 9.18716,0.14736 c -2.35374,2.71131 -4.72785,5.39977 -10.49961,4.27341 -4.03174,-0.83075 -7.48866,-0.79019 -10.35378,0.14736 -10.55076,-6.56031 -10.95626,-14.08172 -9.18716,-21.80914 3.03927,-1.99477 5.75966,-4.00146 3.6457,-6.18909 l -3.79153,-3.24189 c -2.32451,-1.48624 -3.45626,-0.81565 -3.93735,1.03151 -1.23839,4.83371 -2.89534,2.34688 -3.0624,0.14736 1.80745,-2.53835 2.10261,-4.23402 0.21875,-4.71549 z"
       id="path3793-6"
       style="fill:#1a1a1a;fill-opacity:1;stroke:#000000;stroke-width:0.98740387px;stroke-linecap:butt;stroke-linejoin:miter;stroke-opacity:0" />
    <path
       d="m 84.213592,39.617193 c -0.35136,0.43369 -1.50381,2.58285 1.02079,4.12606 1.01978,1.30167 1.0137,2.60334 1.09371,3.90501 0.132,-1.37623 0.21717,-3.06474 -0.76559,-4.34709 -1.72707,-1.22132 -1.63349,-2.35069 -1.34891,-3.68398 z"
       id="path3795-0"
       style="fill:#333333;stroke:#000000;stroke-width:0.98740387px;stroke-linecap:butt;stroke-linejoin:miter;stroke-opacity:0" />
    <path
       d="m 87.800822,39.310793 c -0.49876,0.24523 -2.43576,1.70944 -0.78239,4.17892 0.38684,1.61352 -0.15796,2.79306 -0.62459,4.00902 0.69005,-1.19399 1.46694,-2.69137 1.10573,-4.27169 -1.06245,-1.83976 -0.50957,-2.82581 0.30125,-3.91625 z"
       id="path3795-7-1"
       style="fill:#000000;stroke:#000000;stroke-width:0.98740387px;stroke-linecap:butt;stroke-linejoin:miter;stroke-opacity:0" />
    <path
       d="m 85.839602,34.428623 c -0.35135,0.43369 -1.50381,2.58285 1.0208,4.12606 1.01977,1.30167 1.01369,2.60334 1.09371,3.90501 0.13199,-1.37623 0.21716,-3.06474 -0.7656,-4.3471 -1.72707,-1.22131 -1.63349,-2.35068 -1.34891,-3.68397 z"
       id="path3795-4-6"
       style="fill:#333333;stroke:#000000;stroke-width:0.98740387px;stroke-linecap:butt;stroke-linejoin:miter;stroke-opacity:0" />
    <path
       d="m 89.426842,34.122223 c -0.49876,0.24522 -2.43576,1.70944 -0.78239,4.17891 0.38683,1.61353 -0.15797,2.79307 -0.62459,4.00903 0.69005,-1.19399 1.46694,-2.69137 1.10572,-4.27169 -1.06244,-1.83976 -0.50957,-2.82581 0.30126,-3.91625 z"
       id="path3795-7-0-5"
       style="fill:#000000;stroke:#000000;stroke-width:0.98740387px;stroke-linecap:butt;stroke-linejoin:miter;stroke-opacity:0" />
    <path
       d="m 82.002772,43.958713 c -0.31947,0.35637 -1.36733,2.1224 0.92814,3.3905 0.92722,1.06962 0.9217,2.13924 0.99444,3.20885 0.12003,-1.13089 0.19747,-2.51838 -0.6961,-3.57212 -1.57032,-1.00359 -1.48524,-1.93163 -1.22648,-3.02723 z"
       id="path3795-9-7"
       style="fill:#333333;stroke:#000000;stroke-width:0.85349023px;stroke-linecap:butt;stroke-linejoin:miter;stroke-opacity:0" />
    <path
       d="m 85.264432,43.706933 c -0.4535,0.20151 -2.2147,1.40469 -0.71138,3.43393 0.35172,1.32588 -0.14364,2.29514 -0.56791,3.29433 0.62742,-0.98113 1.33381,-2.21157 1.00537,-3.51017 -0.96602,-1.51178 -0.46332,-2.32204 0.27392,-3.21809 z"
       id="path3795-7-4-5"
       style="fill:#000000;stroke:#000000;stroke-width:0.85349023px;stroke-linecap:butt;stroke-linejoin:miter;stroke-opacity:0" />
    <path
       d="m 80.639622,48.302063 c -0.25487,0.27407 -1.0909,1.6322 0.74052,2.6074 0.73978,0.82258 0.73537,1.64515 0.79341,2.46772 0.0958,-0.86969 0.15754,-1.93672 -0.55539,-2.74709 -1.25286,-0.77178 -1.18498,-1.48547 -0.97854,-2.32803 z"
       id="path3795-8-4"
       style="fill:#333333;stroke:#000000;stroke-width:0.66854262px;stroke-linecap:butt;stroke-linejoin:miter;stroke-opacity:0" />
    <path
       d="m 83.241922,48.108443 c -0.36182,0.15496 -1.76698,1.08025 -0.56757,2.6408 0.28062,1.01964 -0.11459,1.76504 -0.4531,2.53345 0.50058,-0.75453 1.06416,-1.70078 0.80212,-2.69944 -0.77073,-1.16261 -0.36965,-1.78573 0.21855,-2.47481 z"
       id="path3795-7-8-1"
       style="fill:#000000;stroke:#000000;stroke-width:0.66854262px;stroke-linecap:butt;stroke-linejoin:miter;stroke-opacity:0" />
    <path
       d="m 78.889692,51.175553 c -0.25488,0.27407 -1.09091,1.6322 0.74051,2.60741 0.73978,0.82257 0.73537,1.64514 0.79342,2.46771 0.0958,-0.86969 0.15753,-1.93672 -0.55539,-2.74708 -1.25287,-0.77179 -1.18498,-1.48548 -0.97854,-2.32804 z"
       id="path3795-8-2-2"
       style="fill:#333333;stroke:#000000;stroke-width:0.66854262px;stroke-linecap:butt;stroke-linejoin:miter;stroke-opacity:0" />
    <path
       d="m 81.491982,50.981933 c -0.36181,0.15496 -1.76698,1.08025 -0.56757,2.6408 0.28062,1.01965 -0.11459,1.76504 -0.4531,2.53345 0.50058,-0.75452 1.06417,-1.70078 0.80213,-2.69943 -0.77073,-1.16262 -0.36966,-1.78573 0.21854,-2.47482 z"
       id="path3795-7-8-4-0"
       style="fill:#000000;stroke:#000000;stroke-width:0.66854262px;stroke-linecap:butt;stroke-linejoin:miter;stroke-opacity:0" />
    <path
       d="m 76.485472,53.710903 c -0.22897,0.25412 -0.98,1.51343 0.66523,2.41767 0.66457,0.76272 0.66061,1.52543 0.71275,2.28815 0.0861,-0.80641 0.14153,-1.79579 -0.49892,-2.54719 -1.1255,-0.71562 -1.06451,-1.37738 -0.87906,-2.15863 z"
       id="path3795-8-5-0"
       style="fill:#333333;stroke:#000000;stroke-width:0.6101597px;stroke-linecap:butt;stroke-linejoin:miter;stroke-opacity:0" />
    <path
       d="m 78.823212,53.531373 c -0.32503,0.14368 -1.58734,1.00164 -0.50987,2.44864 0.25209,0.94544 -0.10294,1.63659 -0.40703,2.34909 0.44969,-0.69961 0.95597,-1.57701 0.72057,-2.503 -0.69237,-1.07802 -0.33207,-1.65579 0.19633,-2.29473 z"
       id="path3795-7-8-5-1"
       style="fill:#000000;stroke:#000000;stroke-width:0.6101597px;stroke-linecap:butt;stroke-linejoin:miter;stroke-opacity:0" />
    <path
       d="m 74.496382,33.257993 c 3.13357,0.53836 4.98912,8.7283 0.6187,12.50384 2.80698,-3.58579 3.08179,-9.06797 -0.6187,-12.50384 z"
       id="path3884-4"
       style="fill:#000000;stroke:#000000;stroke-width:0.98740387px;stroke-linecap:butt;stroke-linejoin:miter;stroke-opacity:0" />
    <path
       d="m 74.229852,33.291593 c 3.13357,0.53836 4.98912,8.7283 0.6187,12.50383 2.80699,-3.58578 3.08179,-9.06796 -0.6187,-12.50383 z"
       id="path3884-1-6"
       style="fill:#333333;fill-opacity:1;stroke:#000000;stroke-width:0.98740387px;stroke-linecap:butt;stroke-linejoin:miter;stroke-opacity:0" />
    <path
       d="m 85.817702,31.512443 c -3.27042,-0.77446 -9.4976,-2.26984 -7.21849,2.35774 -0.38925,-3.21473 3.66891,-2.55283 7.21849,-2.35774 z"
       id="path3904-0"
       style="fill:#333333;fill-opacity:1;stroke:#000000;stroke-width:0.98740387px;stroke-linecap:butt;stroke-linejoin:miter;stroke-opacity:0" />
    <path
       d="m 85.744792,30.407253 c -3.15567,-1.67035 -6.2529,-1.66641 -8.45802,-1.03151 -0.0747,-5.22791 6.67315,-4.63004 8.45802,1.03151 z"
       id="path3906-7"
       style="fill:#ffffff;fill-opacity:1;stroke:#000000;stroke-width:0.98740387px;stroke-linecap:butt;stroke-linejoin:miter;stroke-opacity:0" />
    <path
       d="m -119.84558,-173.31029 a 1.20625,1.0577885 0 1 1 -2.4125,0 1.20625,1.0577885 0 1 1 2.4125,0 z"
       transform="matrix(1.1852864,0,0,1.2961798,224.65518,252.20666)"
       id="path3908-1"
       style="fill:#000000;fill-opacity:1;stroke:#000000;stroke-opacity:0" />
    <path
       d="m -120.58789,-174.36807 a 0.38971153,0.40826923 0 1 1 -0.77942,0 0.38971153,0.40826923 0 1 1 0.77942,0 z"
       transform="matrix(0.98226064,0,0,0.99257398,199.78223,200.23857)"
       id="path3910-7"
       style="fill:#ffffff;fill-opacity:1;stroke:#000000;stroke-opacity:0" />
    <path
       d="m 72.176282,23.411223 3.71217,-2.48866 c 0.0481,-7.53742 11.2407,-4.16714 16.39543,-4.16794 2.16456,-0.32086 3.51599,-1.1749 3.763728,-3.29436 0.16451,0.74145 0.64256,3.33 -3.660608,3.95955 -6.35098,-0.58221 -11.0894,-1.18418 -13.75517,0.0796 -2.29016,1.08571 -3.15055,4.34164 -0.16549,6.43284 -2.27128,-0.75821 -2.4541,-2.14792 -2.52633,-2.44866 l -3.71217,2.50076 -6.54787,0.1042 -0.20622,4.94943 c -1.13375,0.72821 -2.10001,3.17672 0,3.23016 l 1.28894,-0.2084 0.77337,1.14618 -0.0516,0.88569 -0.56714,-0.88569 -0.46402,-0.52099 -1.39206,0.36469 c -1.47692,-0.54059 -1.58836,-2.88469 -0.0516,-4.01164 l 0.20623,-5.62673 z"
       id="path3912-7"
       style="fill:#333333;fill-opacity:1;stroke:#000000;stroke-width:0.98740387px;stroke-linecap:butt;stroke-linejoin:miter;stroke-opacity:0" />
    <path
       d="m 96.04388,13.516213 c 2.11982,1.38956 2.88002,3.14123 2.27856,5.10231 l -1.23954,0.66312 c 1.1894,-1.84791 0.83396,-3.77015 -1.03902,-5.76543 z"
       id="path3916-7"
       style="fill:#000000;stroke:#000000;stroke-width:0.98740387px;stroke-linecap:butt;stroke-linejoin:miter;stroke-opacity:0" />
    <path
       d="m 104.48367,17.978683 c -4.51555,0.0274 -9.403978,-0.71861 -10.353778,6.70484 3.319818,-5.28999 6.846198,-5.77883 10.353778,-6.70484 z"
       id="path3914-7"
       style="fill:#333333;fill-opacity:1;stroke:#000000;stroke-width:0.98740387px;stroke-linecap:butt;stroke-linejoin:miter;stroke-opacity:0" />
    <path
       d="m 104.34844,17.940803 c 1.6326,4.42493 -2.21271,8.63189 -6.39318,11.14925 3.29314,-3.18674 6.81293,-6.87269 6.39318,-11.14925 z"
       id="path3938-3"
       style="fill:#000000;stroke:#000000;stroke-width:0.98740387px;stroke-linecap:butt;stroke-linejoin:miter;stroke-opacity:0" />
    <path
       d="m 95.583592,24.817913 c 2.333448,-3.49466 4.953428,-5.39682 7.836808,-5.83512 -0.20294,3.51381 -3.08724,5.84222 -5.36203,8.44008 l 1.13427,-3.43855 z"
       id="path3940-3"
       style="fill:#1a1a1a;stroke:#000000;stroke-width:0.98740387px;stroke-linecap:butt;stroke-linejoin:miter;stroke-opacity:0" />
    <path
       d="m 103.74608,25.707963 c 1.29223,4.53834 -2.86082,8.43516 -7.2199,10.6214 3.52512,-2.92236 7.31409,-6.32491 7.2199,-10.6214 z"
       id="path3938-7-5"
       style="fill:#000000;stroke:#000000;stroke-width:0.98740387px;stroke-linecap:butt;stroke-linejoin:miter;stroke-opacity:0" />
    <path
       d="m 70.359932,45.097113 c -2.49462,-3.52977 -5.79808,-5.7472 -10.42669,-4.96416 -5.46881,0.47969 -9.13444,-0.70428 -10.13504,-4.3471 -0.74757,-5.46866 4.61067,-4.83431 4.44775,-1.32623 0.95572,2.39895 3.4192,3.27431 7.2914,2.72615 7.10994,-0.26086 8.61385,4.31244 10.47226,7.89292 z"
       id="path3960-9"
       style="fill:#aa0000;stroke:#000000;stroke-width:0.98740387px;stroke-linecap:butt;stroke-linejoin:miter;stroke-opacity:0" />
    <path
       d="m 67.278272,54.201913 c -17.79286,-1.57905 -20.07467,8.31745 -22.89173,17.81795 1.06811,-15.59223 9.85087,-20.71951 22.89173,-17.81795 z"
       id="path3962-9"
       style="fill:#333333;stroke:#000000;stroke-width:0.98740387px;stroke-linecap:butt;stroke-linejoin:miter;stroke-opacity:0" />
    <path
       d="m 59.029002,56.702683 c -4.84137,3.1809 -10.18719,5.29597 -9.17732,20.83972 0.36543,2.83141 -0.53974,5.01667 -2.37166,6.4603 2.52993,-0.58256 3.64315,-3.11467 3.71217,-6.4603 -1.63353,-12.36192 3.12211,-16.5747 7.83681,-20.83972 z"
       id="path3964-8"
       style="fill:#333333;fill-opacity:1;stroke:#000000;stroke-width:0.98740387px;stroke-linecap:butt;stroke-linejoin:miter;stroke-opacity:0" />
    <path
       d="m 60.885092,61.183223 c -10.06778,5.71002 -10.57087,21.2738 4.22774,21.6733 -11.60521,-1.0502 -14.41978,-13.83198 -4.22774,-21.6733 z"
       id="path3966-1"
       style="fill:#333333;fill-opacity:1;stroke:#000000;stroke-width:0.98740387px;stroke-linecap:butt;stroke-linejoin:miter;stroke-opacity:0" />
    <path
       d="m 62.776882,69.899483 c -7.21099,0.6538 -5.96423,12.04746 2.11451,13.04128 -7.12234,-3.08359 -7.61842,-10.7564 -2.11451,-13.04128 z"
       id="path3968-8"
       style="fill:#000000;stroke:#000000;stroke-width:0.98740387px;stroke-linecap:butt;stroke-linejoin:miter;stroke-opacity:0" />
    <path
       d="m 62.558142,70.046843 c 0.30375,1.03761 0.81157,2.17836 0,2.65246 -2.18768,3.65737 0.88964,6.82174 3.6457,6.4838 -3.3227,-1.62252 -3.66946,-3.92444 -2.55199,-6.1154 0.55498,-1.00696 -0.10542,-2.01391 -1.09371,-3.02086 z"
       id="path3970-2"
       style="fill:#333333;fill-opacity:1;stroke:#000000;stroke-width:0.98740387px;stroke-linecap:butt;stroke-linejoin:miter;stroke-opacity:0" />
    <path
       d="m 70.578682,61.868413 c 0.24078,2.24183 0.49995,6.38084 -3.06238,8.69419 -2.12087,1.89025 -3.04179,5.06112 -1.38537,8.69418 -3.0106,-3.51999 -1.57366,-7.82646 0.87497,-9.7257 2.01304,-1.44655 3.30838,-3.86011 3.57278,-7.66267 z"
       id="path3972-6"
       style="fill:#000000;stroke:#000000;stroke-width:0.98740387px;stroke-linecap:butt;stroke-linejoin:miter;stroke-opacity:0" />
    <path
       d="m 70.679762,62.546173 c 0.67053,2.15079 1.72673,6.1584 -1.31836,9.13183 -1.71353,2.27331 -2.00218,5.56503 0.32618,8.79999 -3.63441,-2.85614 -3.05979,-7.36356 -1.02659,-9.71054 1.69377,-1.81687 2.49633,-4.44001 2.01877,-8.22128 z"
       id="path3972-1-6"
       style="fill:#333333;stroke:#000000;stroke-width:0.98740387px;stroke-linecap:butt;stroke-linejoin:miter;stroke-opacity:0" />
    <path
       d="m 77.401862,64.341453 c -0.23939,2.24198 -0.86246,6.3412 -4.83206,7.83092 -2.47193,1.38802 -4.04281,4.28641 -3.19387,8.19344 -2.19571,-4.08931 0.11964,-7.98546 2.91365,-9.3114 2.27269,-0.97792 4.04899,-3.05558 5.11228,-6.71296 z"
       id="path3972-15-0"
       style="fill:#000000;stroke:#000000;stroke-width:0.98740387px;stroke-linecap:butt;stroke-linejoin:miter;stroke-opacity:0" />
    <path
       d="m 89.619182,75.769403 c -0.90518,-2.06115 -2.73671,-5.77258 -6.96687,-5.96685 -2.77324,-0.55935 -5.14463,-2.83492 -5.51634,-6.81734 -0.85574,4.5714 2.526,7.56749 5.58719,7.96839 2.45961,0.23027 4.77872,1.66092 6.89602,4.8158 z"
       id="path3972-2-3"
       style="fill:#333333;fill-opacity:1;stroke:#000000;stroke-width:0.98740387px;stroke-linecap:butt;stroke-linejoin:miter;stroke-opacity:0" />
    <path
       d="m 89.577692,75.572553 c -0.0229,-1.95037 -0.20956,-5.53172 -3.20519,-7.14182 -1.83166,-1.39906 -2.84779,-4.02445 -1.89728,-7.31895 -2.01726,3.34043 -0.492,6.88642 1.59613,8.25857 1.70589,1.02947 2.94288,2.96504 3.50634,6.2022 z"
       id="path3972-2-7-8"
       style="fill:#000000;fill-opacity:1;stroke:#000000;stroke-width:0.81398726px;stroke-linecap:butt;stroke-linejoin:miter;stroke-opacity:0" />
    <path
       d="m 88.734262,59.510663 c 6.26053,2.30214 11.980048,2.81507 16.113978,-1.91566 -3.531,6.91486 -9.496648,5.52651 -16.113978,1.91566 z"
       id="path4035-0"
       style="fill:#000000;stroke:#000000;stroke-width:0.98740387px;stroke-linecap:butt;stroke-linejoin:miter;stroke-opacity:0" />
    <path
       d="m 93.854382,70.301093 c -0.67184,-1.55498 -2.03124,-4.35499 -5.17095,-4.50156 -2.05836,-0.42199 -3.81846,-2.13874 -4.09435,-5.1432 -0.63514,3.4488 1.87485,5.70914 4.14693,6.01159 1.82558,0.17372 3.54687,1.25304 5.11837,3.63317 z"
       id="path3972-2-6-12"
       style="fill:#333333;fill-opacity:1;stroke:#000000;stroke-width:0.73887455px;stroke-linecap:butt;stroke-linejoin:miter;stroke-opacity:0" />
    <path
       d="m 93.600792,69.882233 c -0.0257,-1.40951 -0.19845,-3.99588 -2.79955,-5.1224 -1.59171,-0.98847 -2.48034,-2.87352 -1.66656,-5.26673 -1.73816,2.4397 -0.40547,4.98385 1.40841,5.94967 1.48156,0.72287 2.55952,2.10657 3.0577,4.43946 z"
       id="path3972-2-6-1-5"
       style="fill:#000000;fill-opacity:1;stroke:#000000;stroke-width:0.64428151px;stroke-linecap:butt;stroke-linejoin:miter;stroke-opacity:0" />
    <path
       d="m 117.08326,17.732403 c -4.69349,2.9122 -8.69498,6.71437 -7.42435,17.29697 0.64072,7.00855 -1.95079,12.0574 -6.80565,15.73399 5.01242,-2.639 9.54873,-6.36675 8.35239,-16.15078 0.36622,-11.30994 3.06797,-12.82941 5.87761,-16.88018 z"
       id="path4073-0"
       style="fill:#000000;stroke:#000000;stroke-width:0.98740387px;stroke-linecap:butt;stroke-linejoin:miter;stroke-opacity:0" />
    <path
       d="m 117.90819,22.004553 c -3.0505,3.81629 -5.98032,7.73419 -2.5779,16.98437 0.68892,3.97212 -0.39064,6.75288 -2.16544,9.06528 -1.96256,3.88923 -2.26518,8.1978 -0.92804,12.92062 1.18464,3.74372 0.61131,6.77687 0.51558,10.00306 0.30756,-3.46743 1.16743,-6.59998 0.20623,-10.83665 -0.30217,-3.58665 -0.30098,-7.07111 1.03116,-10.10727 2.25295,-3.44112 3.84288,-7.12588 3.09348,-11.67023 -2.9277,-6.35204 -1.08482,-11.365 0.82493,-16.35918 z"
       id="path4075-9"
       style="fill:#000000;stroke:#000000;stroke-width:0.98740387px;stroke-linecap:butt;stroke-linejoin:miter;stroke-opacity:0" />
    <path
       d="m 120.27986,22.942333 c -0.23511,11.65001 4.47382,13.01827 8.97108,8.2317 -5.39726,11.40058 -11.92126,-0.17828 -8.97108,-8.2317 z"
       id="path4077-4"
       style="fill:#333333;fill-opacity:1;stroke:#000000;stroke-width:0.98740387px;stroke-linecap:butt;stroke-linejoin:miter;stroke-opacity:0" />
    <path
       d="m 102.4408,50.867553 c 2.67755,-5.44264 4.54024,-11.64603 4.74333,-17.92216 -4.03792,-21.27905 14.98304,-22.7025 21.44811,-21.1523 -7.1649,0.39855 -20.83194,0.22398 -20.21072,20.52712 0.30052,6.91273 -1.35217,13.57165 -5.98072,18.54734 z"
       id="path4079-7"
       style="fill:#333333;fill-opacity:1;stroke:#000000;stroke-width:0.98740387px;stroke-linecap:butt;stroke-linejoin:miter;stroke-opacity:0" />
    <path
       d="m 149.25543,33.257993 c 1.39991,13.30726 -3.55909,18.52658 -10.10536,22.19431 -7.32556,5.1353 -12.22884,9.57034 -10.82717,16.35917 1.84617,-5.1746 3.4319,-10.37027 11.96144,-15.0046 9.49511,-5.3376 12.03903,-13.5503 8.97109,-23.54888 z"
       id="path4081-8"
       style="fill:#000000;stroke:#000000;stroke-width:0.98740387px;stroke-linecap:butt;stroke-linejoin:miter;stroke-opacity:0" />
    <path
       d="m 146.36818,70.561093 c -6.20558,-10.29102 -16.13915,-4.83588 -17.32347,3.85534 -0.80446,-11.75208 14.2964,-15.49506 17.32347,-3.85534 z"
       id="path4083-3"
       style="fill:#333333;fill-opacity:1;stroke:#000000;stroke-width:0.98740387px;stroke-linecap:butt;stroke-linejoin:miter;stroke-opacity:0" />
    <path
       d="m 149.35854,79.834773 c -4.58003,-12.92149 -17.9326,-3.64469 -14.02376,3.54274 0.17179,-7.73591 7.86151,-13.22579 14.02376,-3.54274 z"
       id="path4085-5"
       style="fill:#333333;fill-opacity:1;stroke:#000000;stroke-width:0.98740387px;stroke-linecap:butt;stroke-linejoin:miter;stroke-opacity:0" />
    <path
       d="m 132.99304,39.027763 -10.49961,18.12516 c -6.95684,10.92528 -5.33974,20.5602 5.97894,28.73502 l 8.16636,8.9889 -7.29139,-9.7257 c -11.93686,-9.61709 -10.02873,-18.56797 -5.83312,-27.40879 z"
       id="path4087-1"
       style="fill:#333333;fill-opacity:1;stroke:#000000;stroke-width:0.98740387px;stroke-linecap:butt;stroke-linejoin:miter;stroke-opacity:0" />
    <path
       d="m 97.59435,88.066453 1.03115,2.60497 c 3.12897,4.07858 1.9486,8.54336 -0.7218,11.357647 -3.735858,4.52669 -4.268218,8.88399 -3.196598,12.60803 3.597608,11.07791 2.450818,16.32502 -4.12463,14.9004 7.387268,3.41507 10.463208,-1.72454 5.980718,-14.58781 -0.25111,-3.7731 -0.792158,-7.14057 2.88725,-11.14925 2.35796,-2.94951 4.38736,-9.243767 0.30934,-13.129017 z"
       id="path4089-2"
       style="fill:#333333;fill-opacity:1;stroke:#000000;stroke-width:0.98740387px;stroke-linecap:butt;stroke-linejoin:miter;stroke-opacity:0" />
    <path
       d="m 102.36917,121.40147 c 3.19521,8.10817 9.9685,2.92711 8.60385,-5.89436 -0.6322,5.11274 -2.91238,11.75049 -8.60385,5.89436 z"
       id="path4091-0"
       style="fill:#333333;fill-opacity:1;stroke:#000000;stroke-width:0.98740387px;stroke-linecap:butt;stroke-linejoin:miter;stroke-opacity:0" />
    <path
       d="m 107.58821,126.72161 c 5.7227,6.53657 7.444,-3.23426 3.20485,-11.06817 1.11781,5.02716 4.11234,14.63179 -3.20485,11.06817 z"
       id="path4091-4-1"
       style="fill:#000000;fill-opacity:1;stroke:#000000;stroke-width:0.98740387px;stroke-linecap:butt;stroke-linejoin:miter;stroke-opacity:0" />
    <path
       d="m 105.06699,127.73791 c -3.59366,4.6736 -8.63813,4.41591 -14.364058,1.84199 4.36431,4.21885 13.297878,4.41628 14.364058,-1.84199 z"
       id="path4111-6"
       style="fill:#000000;stroke:#000000;stroke-width:0.98740387px;stroke-linecap:butt;stroke-linejoin:miter;stroke-opacity:0" />
    <path
       d="m 123.14965,127.29583 c 5.98095,2.52967 4.03627,5.05933 2.04159,7.589 0,0 -0.0729,8.54682 0,8.2521 0.0729,-0.29471 1.23954,-7.66267 1.23954,-7.66267 5.2483,-4.29303 1.46481,-7.86839 -3.28113,-8.17843 z"
       id="path4113-4"
       style="fill:#000000;stroke:#000000;stroke-width:0.98740387px;stroke-linecap:butt;stroke-linejoin:miter;stroke-opacity:0" />
    <path
       d="m 71.709762,125.49519 c 3.28844,5.6466 0.23151,6.49442 -2.86543,7.31197 0,0 -5.12626,6.79855 -4.89316,6.60673 0.23311,-0.19183 5.53603,-5.38432 5.53603,-5.38432 6.74745,-0.25934 5.83838,-5.41261 2.22256,-8.53438 z"
       id="path4113-2-0"
       style="fill:#000000;stroke:#000000;stroke-width:0.98740387px;stroke-linecap:butt;stroke-linejoin:miter;stroke-opacity:0" />
    <path
       d="m 60.445232,112.98861 c -3.29621,8.06679 5.13509,9.11652 10.23645,1.82634 -3.97778,3.22358 -10.18921,6.3815 -10.23645,-1.82634 z"
       id="path4091-3-6"
       style="fill:#333333;fill-opacity:1;stroke:#000000;stroke-width:0.98740387px;stroke-linecap:butt;stroke-linejoin:miter;stroke-opacity:0" />
    <path
       d="m 60.522942,120.47934 c -0.39937,8.71806 7.57064,2.9187 9.92875,-5.68606 -2.6631,4.39391 -7.1348,13.3932 -9.92875,5.68606 z"
       id="path4091-4-2-1"
       style="fill:#000000;fill-opacity:1;stroke:#000000;stroke-width:0.98740387px;stroke-linecap:butt;stroke-linejoin:miter;stroke-opacity:0" />
    <path
       d="m 43.235942,116.83334 c 4.60646,-0.51429 8.37076,-2.73058 11.88498,-5.45228 4.49434,-4.34797 9.49481,-7.16162 14.52901,-9.87299 14.44798,-10.721207 24.05316,-9.575227 28.975568,-10.836647 -11.607658,2.13809 -20.099158,6.24422 -27.325708,11.149247 -4.51363,2.10922 -10.83072,5.74917 -14.53934,10.21146 -4.50817,4.14465 -9.01634,5.35921 -13.52451,4.80121 z"
       id="path4154-8"
       style="fill:#333333;fill-opacity:1;stroke:#000000;stroke-width:0.98740387px;stroke-linecap:butt;stroke-linejoin:miter;stroke-opacity:0" />
    <path
       d="m 25.980353,93.536873 c -4.65923,-1.37606 -6.74913,3.48703 -6.23852,5.26204 1.70717,-1.44655 4.1594,-1.91808 6.59943,-0.31261 2.00787,-0.90063 1.85573,-4.88258 -0.36091,-4.94943 z"
       id="path4156-98"
       style="fill:#aa0000;stroke:#000000;stroke-width:0.98740387px;stroke-linecap:butt;stroke-linejoin:miter;stroke-opacity:0" />
    <path
       d="m 35.875192,85.868323 c -2.44237,-4.239 -7.271039,-2.16506 -8.109769,-0.52233 2.223729,0.13815 4.323739,1.50181 5.000069,4.36361 2.06997,0.74331 4.67209,-2.25096 3.1097,-3.84128 z"
       id="path4156-2-4"
       style="fill:#aa0000;stroke:#000000;stroke-width:0.98740387px;stroke-linecap:butt;stroke-linejoin:miter;stroke-opacity:0" />
    <path
       d="m 27.541653,103.7804 c -4.39169,2.08953 -2.76755,7.13095 -1.22109,8.11831 0.32983,-2.22651 1.85704,-4.22178 4.737239,-4.65342 0.91304,-2.01904 -1.81228,-4.89921 -3.516149,-3.46489 z"
       id="path4156-1-1"
       style="fill:#aa0000;stroke:#000000;stroke-width:0.98740387px;stroke-linecap:butt;stroke-linejoin:miter;stroke-opacity:0" />
    <path
       d="m 41.800382,109.24823 c -0.83153,4.83261 -6.07253,4.58447 -7.42414,3.33888 2.03747,-0.91078 3.53731,-2.92715 3.18681,-5.84803 1.6851,-1.42417 5.15509,0.46913 4.23733,2.50915 z"
       id="path4156-6-4"
       style="fill:#aa0000;stroke:#000000;stroke-width:0.98740387px;stroke-linecap:butt;stroke-linejoin:miter;stroke-opacity:0" />
    <path
       d="m 49.522302,25.180443 c 1.48664,-4.66942 -3.26794,-6.91134 -5.03761,-6.44332 1.38506,1.76339 1.78555,4.25316 0.13167,6.67472 0.83693,2.05244 4.78017,2.00591 4.90594,-0.2314 z"
       id="path4156-8-3"
       style="fill:#aa0000;stroke:#000000;stroke-width:0.98740387px;stroke-linecap:butt;stroke-linejoin:miter;stroke-opacity:0" />
    <path
       d="m 37.899732,19.321463 c -0.65816,-4.85983 -5.90461,-4.80325 -7.29988,-3.60785 2.00357,0.9846 3.4303,3.05443 2.97556,5.9606 1.63307,1.48478 5.16851,-0.28055 4.32432,-2.35275 z"
       id="path4156-5-9"
       style="fill:#aa0000;stroke:#000000;stroke-width:0.98740387px;stroke-linecap:butt;stroke-linejoin:miter;stroke-opacity:0" />
    <path
       d="m 28.681063,24.405313 c -2.90171,-3.93223 -7.4669,-1.31907 -8.11614,0.40907 2.22491,-0.11721 4.46423,0.99736 5.45692,3.76336 2.13997,0.50165 4.389779,-2.77113 2.65922,-4.17243 z"
       id="path4156-7-8"
       style="fill:#aa0000;stroke:#000000;stroke-width:0.98740387px;stroke-linecap:butt;stroke-linejoin:miter;stroke-opacity:0" />
    <path
       d="m 27.206163,40.653623 c -4.65923,1.37607 -6.74912,-3.48702 -6.23852,-5.26203 1.70717,1.44655 4.15941,1.91808 6.59943,0.3126 2.007869,0.90064 1.855739,4.88258 -0.36091,4.94943 z"
       id="path4156-61-8"
       style="fill:#aa0000;stroke:#000000;stroke-width:0.98740387px;stroke-linecap:butt;stroke-linejoin:miter;stroke-opacity:0" />
    <path
       d="m 51.059932,130.50451 c -3.10917,-3.76685 -7.52687,-0.90654 -8.08209,0.85474 2.2153,-0.23937 4.51133,0.75042 5.6515,3.45773 2.1638,0.38324 4.23405,-3.0084 2.43059,-4.31247 z"
       id="path4156-89-0"
       style="fill:#aa0000;stroke:#000000;stroke-width:0.98740387px;stroke-linecap:butt;stroke-linejoin:miter;stroke-opacity:0" />
    <path
       d="m 42.430412,140.0523 c -4.65922,-1.37606 -6.74912,3.48702 -6.23851,5.26203 1.70717,-1.44655 4.1594,-1.91808 6.59942,-0.3126 2.00787,-0.90063 1.85574,-4.88258 -0.36091,-4.94943 z"
       id="path4156-27-8"
       style="fill:#aa0000;stroke:#000000;stroke-width:0.98740387px;stroke-linecap:butt;stroke-linejoin:miter;stroke-opacity:0" />
    <path
       d="m 47.546292,149.21521 c -4.66147,1.36826 -3.83923,6.60459 -2.46501,7.82464 0.67105,-2.14678 2.48883,-3.87554 5.40038,-3.84575 1.21487,-1.84951 -1.03011,-5.12567 -2.93537,-3.97889 z"
       id="path4156-9-7"
       style="fill:#aa0000;stroke:#000000;stroke-width:0.98740387px;stroke-linecap:butt;stroke-linejoin:miter;stroke-opacity:0" />
    <path
       d="m 60.202722,154.73026 c 0.83686,4.83167 -4.17772,6.39138 -5.86686,5.68182 1.61195,-1.5541 2.34756,-3.96453 1.03905,-6.59296 1.10837,-1.9166 5.00779,-1.32239 4.82781,0.91114 z"
       id="path4156-54-7"
       style="fill:#aa0000;stroke:#000000;stroke-width:0.98740387px;stroke-linecap:butt;stroke-linejoin:miter;stroke-opacity:0" />
    <path
       d="m 105.94981,141.51108 c -4.65922,-1.37606 -6.74911,3.48702 -6.23851,5.26203 1.70717,-1.44654 4.1594,-1.91808 6.59943,-0.3126 2.00786,-0.90063 1.85573,-4.88258 -0.36092,-4.94943 z"
       id="path4156-3-8"
       style="fill:#aa0000;stroke:#000000;stroke-width:0.98740387px;stroke-linecap:butt;stroke-linejoin:miter;stroke-opacity:0" />
    <path
       d="m 101.39445,152.10531 c -4.83669,0.41565 -5.0491,5.71314 -3.93901,7.18235 1.07555,-1.9716 3.19416,-3.30557 6.04311,-2.69803 1.55095,-1.57212 -0.0129,-5.23028 -2.1041,-4.48432 z"
       id="path4156-12-3"
       style="fill:#aa0000;stroke:#000000;stroke-width:0.98740387px;stroke-linecap:butt;stroke-linejoin:miter;stroke-opacity:0" />
    <path
       d="m 108.49794,160.41777 c -3.35195,3.54788 -0.0396,7.65963 1.75496,8.01778 -0.48604,-2.1971 0.22737,-4.61434 2.76033,-6.06542 0.13197,-2.21585 -3.43713,-3.91061 -4.51529,-1.95236 z"
       id="path4156-33-8"
       style="fill:#aa0000;stroke:#000000;stroke-width:0.98740387px;stroke-linecap:butt;stroke-linejoin:miter;stroke-opacity:0" />
    <path
       d="m 122.58067,160.70569 c 0.59614,4.86799 -4.4895,6.17174 -6.14132,5.37751 1.68701,-1.47049 2.54126,-3.84064 1.36478,-6.53204 1.20205,-1.85805 5.0671,-1.06707 4.77654,1.15453 z"
       id="path4156-4-3"
       style="fill:#aa0000;stroke:#000000;stroke-width:0.98740387px;stroke-linecap:butt;stroke-linejoin:miter;stroke-opacity:0" />
    <path
       d="m 87.88923,9.9469205 -78.3876916,0 0,71.2615395 C 11.9167,128.41731 36.820279,168.3126 87.88923,186.02231 z"
       id="path3005-7"
       style="opacity:0.15476188;fill:url(#linearGradient4947);fill-opacity:1;stroke:#000000;stroke-width:1px;stroke-linecap:butt;stroke-linejoin:miter;stroke-opacity:0" />
    <path
       d="m 88.186158,10.243844 78.387692,0 0,71.261539 C 164.15868,128.71423 139.2551,168.60952 88.186158,186.31923 z"
       id="path3005-7-4"
       style="opacity:0.15476188;fill:url(#linearGradient4989);fill-opacity:1;stroke:#000000;stroke-width:1px;stroke-linecap:butt;stroke-linejoin:miter;stroke-opacity:0" />
    <path
       d="m 9.7984615,9.79846 2.9692305,2.96923 0,66.510772 c 3.108151,42.117398 20.682174,82.945728 75.418462,102.735388 l 0,3.86 C 35.881175,167.4689 12.853874,128.82536 9.7984615,81.06 z"
       id="path4995"
       style="fill:#ffffff;fill-opacity:0.45754718;stroke:#000000;stroke-width:1px;stroke-linecap:butt;stroke-linejoin:miter;stroke-opacity:0" />
    <path
       d="m 167.2672,9.6421352 -2.96923,2.9692298 0,66.510772 C 161.18982,121.23954 143.6158,162.06787 88.879513,181.85753 l 0,3.86 C 141.18449,167.31258 164.21179,128.66904 167.2672,80.903675 z"
       id="path4995-9"
       style="fill:#000000;fill-opacity:0.14150941;stroke:#000000;stroke-width:1px;stroke-linecap:butt;stroke-linejoin:miter;stroke-opacity:0" />
    <path
       d="m 9.7984615,9.79846 2.9692305,2.96923 151.208198,0 2.67219,-2.96923 z"
       id="path5015"
       style="fill:#ffffff;fill-opacity:0.55660376;stroke:#000000;stroke-width:1px;stroke-linecap:butt;stroke-linejoin:miter;stroke-opacity:0" />
  </g>
</svg>
