<svg width="512" height="512" viewBox="0 0 92 85" fill="none" xmlns="http://www.w3.org/2000/svg"
   preserveAspectRatio="xMidYMid meet">
<g clip-path="url(#clip0_378_2)">
<mask id="mask0_378_2" style="mask-type:luminance" maskUnits="userSpaceOnUse" x="0" y="0" width="92" height="85">
<path d="M0 0H91.636V84.192H0V0Z" fill="white"/>
</mask>
<g mask="url(#mask0_378_2)">
<path d="M90.057 45.54C89.857 43.326 91.122 40.191 89.857 38.535C86.848 34.587 78.411 33.157 73.576 33.255C65.0433 33.5492 56.6259 35.3187 48.697 38.485C48.9388 38.8538 49.1066 39.2661 49.191 39.699C51.4136 39.6777 53.6313 39.9106 55.801 40.393C65.493 35.799 78.41 36.655 85.389 38.848C85.612 38.948 85.496 39.196 85.252 39.148C74.552 36.926 65.215 37.531 57.833 40.914C59.3976 41.3738 60.9263 41.9477 62.407 42.631C70.266 39.546 80.557 41.968 85.368 44.453C85.58 44.571 85.443 44.816 85.205 44.739C75.716 41.699 69.605 41.239 63.892 43.356C65.0521 43.9588 66.1785 44.6244 67.266 45.35C73.148 45.1114 78.9692 46.6179 83.997 49.68C84.197 49.817 84.039 50.05 83.811 49.95C81.665 49.004 73.969 45.843 68.735 46.376C70.418 47.6181 71.9923 49.0011 73.441 50.51C77.413 51.188 81.584 53.3 83.403 55.404C83.579 55.572 83.381 55.775 83.173 55.638C81.257 54.376 77.022 51.586 74.397 51.547C76.7965 54.2005 78.7033 57.2608 80.028 60.584C80.103 60.817 79.839 60.899 79.714 60.684C78.0989 57.8429 76.1948 55.1761 74.032 52.726C73.239 55.713 74.132 59.526 74.032 60.393C74.006 60.642 73.785 60.721 73.718 60.487C73.0801 57.4922 72.7627 54.438 72.771 51.376C71.3212 49.8809 69.749 48.5095 68.071 47.276C67.204 50.965 67.69 55.641 67.714 56.596C67.721 56.846 67.468 56.924 67.4 56.69C66.588 54.141 66.854 48.79 67.047 46.555C65.6533 45.6072 64.1898 44.7665 62.669 44.04C62.045 46.076 62.376 46.585 62.338 48.556C62.338 48.805 62.092 48.884 62.024 48.65C61.5135 47.0189 61.4085 45.2879 61.718 43.607C57.7577 41.9221 53.5136 41.0042 49.211 40.902C49.1679 41.1683 49.0941 41.4287 48.991 41.678C57.621 44.74 68.154 57.14 67.31 67.765C69.8983 67.9469 72.4911 67.4784 74.852 66.402C79.186 68.072 82.552 67.302 84.521 65.441C86.1556 63.6488 87.1416 61.36 87.321 58.941C88.779 57.741 91.634 54.47 91.634 51.707C91.634 48.944 90.353 48.796 90.057 45.54Z" fill="#836A26"/>
<path d="M42.627 41.634C42.536 41.4083 42.469 41.1737 42.427 40.934C38.1247 41.024 33.8789 41.9318 29.916 43.609C30.2256 45.2905 30.1206 47.0222 29.61 48.654C29.542 48.888 29.299 48.809 29.295 48.56C29.257 46.589 29.59 46.08 28.964 44.044C27.44 44.7708 25.9737 45.6129 24.578 46.563C24.772 48.798 25.036 54.149 24.225 56.698C24.157 56.932 23.904 56.854 23.91 56.604C23.935 55.649 24.422 50.973 23.553 47.284C21.8753 48.5179 20.3032 49.8893 18.853 51.384C18.8619 54.4459 18.5452 57.5001 17.908 60.495C17.84 60.729 17.619 60.648 17.593 60.395C17.503 59.529 18.393 55.716 17.593 52.728C15.4315 55.1791 13.5275 57.8458 11.911 60.686C11.787 60.903 11.522 60.82 11.599 60.586C12.9237 57.2628 14.8305 54.2025 17.23 51.549C14.604 51.588 10.37 54.378 8.453 55.64C8.245 55.777 8.053 55.574 8.225 55.404C10.044 53.304 14.215 51.187 18.186 50.51C19.6376 49.0015 21.2146 47.6188 22.9 46.377C17.668 45.84 9.974 49.002 7.826 49.95C7.598 50.05 7.437 49.817 7.64 49.68C12.6671 46.6178 18.4875 45.1106 24.369 45.348C25.457 44.6221 26.584 43.9564 27.745 43.354C22.037 41.24 15.92 41.696 6.43 44.74C6.193 44.815 6.054 44.572 6.268 44.454C11.078 41.969 21.368 39.547 29.228 42.63C30.7077 41.9458 32.2359 41.3716 33.8 40.912C26.419 37.529 17.078 36.924 6.381 39.146C6.137 39.197 6.021 38.946 6.244 38.846C13.223 36.651 26.144 35.796 35.832 40.391C38.0017 39.9086 40.2194 39.6758 42.442 39.697C42.5264 39.2641 42.6942 38.8518 42.936 38.483C35.0073 35.3147 26.5893 33.5448 18.056 33.252C13.221 33.152 4.785 34.584 1.775 38.532C0.512 40.187 1.775 43.324 1.575 45.537C1.283 48.796 0 48.94 0 51.707C0 54.474 2.854 57.74 4.313 58.94C4.49244 61.359 5.4784 63.6478 7.113 65.44C9.077 67.298 12.448 68.073 16.782 66.402C19.1433 67.4783 21.7363 67.9468 24.325 67.765C23.491 57.192 34.02 44.78 42.625 41.635" fill="#836A26"/>
<path d="M48.635 42.324C48.1276 43.0488 47.3605 43.5501 46.493 43.724V44.892C50.5382 46.8229 54.0764 49.6723 56.8253 53.2129C59.5742 56.7535 61.4578 60.8874 62.326 65.285C62.335 65.529 62.085 65.528 61.997 65.294C57.643 53.485 51.185 47.844 46.497 46.285V50.311C54.397 53.934 57.966 63.001 58.881 68.011C58.888 68.254 58.64 68.249 58.554 68.011C54.302 56.549 50.174 53.381 46.492 51.795V56.256C53.031 60.041 54.115 67.636 54.732 73.456C54.732 73.739 54.512 73.738 54.453 73.466C51.853 61.555 50.353 60.06 46.488 57.432C46.488 59.296 46.476 61.073 46.466 62.748C50.212 66.024 50.866 70.324 50.766 75.828C50.739 76.11 50.53 76.082 50.487 75.808C49.465 69.417 48.77 65.677 46.452 64.045C46.4 71.087 46.28 76.078 46.008 77.588C45.962 77.909 45.989 78.065 45.819 78.065C45.649 78.065 45.676 77.909 45.63 77.588C45.358 76.078 45.238 71.088 45.185 64.045C42.867 65.676 42.172 69.416 41.152 75.808C41.107 76.083 40.899 76.108 40.873 75.828C40.773 70.328 41.429 66.028 45.173 62.748C45.163 61.073 45.156 59.296 45.15 57.432C41.286 60.061 39.78 61.555 37.186 73.466C37.127 73.738 36.903 73.739 36.907 73.456C37.521 67.633 38.607 60.037 45.147 56.256C45.147 54.814 45.147 53.324 45.141 51.795C41.461 53.382 37.332 56.549 33.084 68.011C32.997 68.245 32.75 68.249 32.756 68.011C33.671 63.005 37.241 53.938 45.14 50.311V46.285C40.449 47.844 33.99 53.485 29.64 65.294C29.553 65.528 29.303 65.53 29.312 65.285C30.1797 60.8875 32.0628 56.7536 34.8112 53.2128C37.5596 49.6721 41.0972 46.8224 45.142 44.891V43.724C44.2754 43.55 43.5092 43.0486 43.003 42.324C34.631 45.691 23.703 57.771 25.54 68.264C26.2 71.028 26.401 71.326 29.598 73.499C30.0205 75.0366 30.8327 76.4392 31.956 77.571C33.7756 79.2609 36.0644 80.3598 38.521 80.723C39.4035 81.8067 40.5163 82.6803 41.7786 83.2803C43.0408 83.8802 44.4209 84.1915 45.8185 84.1915C47.2161 84.1915 48.5962 83.8802 49.8584 83.2803C51.1207 82.6803 52.2335 81.8067 53.116 80.723C55.573 80.3604 57.8624 79.2614 59.682 77.571C60.8064 76.4397 61.6194 75.037 62.042 73.499C65.242 71.326 65.442 71.028 66.098 68.264C67.938 57.772 57.007 45.691 48.636 42.324" fill="#836A26"/>
<path d="M6.168 32.348C8.295 32.654 9.807 31.756 10.903 31.756C11.5576 32.0861 12.1878 32.4624 12.789 32.882C14.3707 32.6366 15.9684 32.5082 17.569 32.498C18.0065 32.1995 18.4761 31.9509 18.969 31.757C20.332 31.715 21.654 32.786 23.48 32.533C24.831 32.348 25.873 31.211 25.864 29.087C25.864 28.295 27.176 27.448 26.552 26.073C26.223 25.35 24.045 25.69 23.103 25.733C21.875 25.789 20.703 25.51 19.365 26.782C18.027 28.054 18.631 29.5 17.907 30.487C17.6796 30.8345 17.3767 31.1262 17.0209 31.3404C16.6651 31.5546 16.2655 31.6857 15.852 31.724V27.354C16.1638 26.6473 16.5857 25.9945 17.102 25.42C17.5622 24.7829 18.1834 24.2794 18.902 23.961C20.602 23.552 21.741 24.126 23.315 23.59C24.248 23.274 24.858 21.827 24.952 20.441C25.03 19.315 25.865 19.087 25.14 18.113C24.509 17.266 23.34 17.872 22.465 17.828C21.59 17.784 19.965 17.25 18.917 18.12C17.382 19.392 18.092 21.764 17.602 22.906C17.0715 24.0533 16.3795 25.1188 15.547 26.07C15.569 23.507 15.817 18.65 16.388 17.706C16.959 16.762 18.769 16.313 18.569 14.459C18.4433 13.8429 18.1595 13.2701 17.7456 12.7967C17.3317 12.3234 16.8018 11.9658 16.208 11.759C15.814 11.559 16.302 10.291 14.936 10.291C14.036 10.291 14.059 11.561 13.664 11.759C12.664 12.259 11.538 12.593 11.45 14.459C11.362 16.325 13.002 16.695 13.578 17.639C14.154 18.583 14.542 23.448 14.564 26.013C14.099 25.983 12.797 23.736 12.307 22.593C11.817 21.45 12.482 19.393 10.947 18.121C9.896 17.251 8.317 17.64 7.44 17.683C6.563 17.726 5.468 17.183 4.765 17.968C4.062 18.753 4.896 19.283 5.05 20.401C5.204 21.519 5.489 23.164 6.431 23.449C7.373 23.734 9.743 23.476 10.684 23.712C11.4972 24.1185 12.2088 24.7026 12.766 25.421C13.3259 26.0076 13.7975 26.6726 14.166 27.395L14.232 31.734C13.2439 31.6186 12.3395 31.1233 11.71 30.353C10.986 29.367 11.841 28.053 10.505 26.781C9.169 25.509 7.744 25.996 6.515 25.939C5.571 25.896 3.774 25.29 3.446 26.014C2.82 27.388 3.884 27.921 3.946 28.714C4.134 30.978 4.812 32.158 6.16 32.353" fill="#836A26"/>
<path d="M68.156 32.533C69.983 32.784 71.303 31.714 72.666 31.757C73.1592 31.9502 73.6289 32.1987 74.066 32.498C75.6663 32.5078 77.2636 32.6358 78.845 32.881C79.4471 32.4634 80.0773 32.0879 80.731 31.757C81.831 31.757 83.341 32.657 85.466 32.349C86.816 32.149 87.493 30.975 87.68 28.709C87.746 27.92 88.81 27.388 88.186 26.009C87.857 25.286 86.059 25.892 85.117 25.935C83.89 25.991 82.465 25.504 81.127 26.776C79.789 28.048 80.644 29.363 79.92 30.35C79.2912 31.1201 78.3875 31.6154 77.4 31.731L77.465 27.39C77.8338 26.6684 78.3053 26.0041 78.865 25.418C79.4228 24.6996 80.1341 24.115 80.947 23.707C81.891 23.473 84.259 23.73 85.201 23.444C86.143 23.158 86.428 21.515 86.581 20.398C86.734 19.281 87.569 18.754 86.867 17.965C86.165 17.176 85.067 17.724 84.191 17.68C83.315 17.636 81.734 17.248 80.685 18.118C79.15 19.39 79.815 21.447 79.325 22.59C78.835 23.733 77.533 25.98 77.066 26.009C77.088 23.444 77.484 18.579 78.054 17.635C78.624 16.691 80.266 16.32 80.178 14.457C80.09 12.594 78.97 12.262 77.964 11.757C77.57 11.557 77.593 10.287 76.692 10.287C75.326 10.287 75.816 11.559 75.42 11.757C74.8262 11.9639 74.2964 12.3215 73.8825 12.7948C73.4686 13.2682 73.1848 13.8409 73.059 14.457C72.859 16.311 74.672 16.757 75.241 17.704C75.81 18.651 76.059 23.504 76.081 26.068C75.2464 25.1164 74.5518 24.0507 74.018 22.903C73.53 21.76 74.238 19.389 72.703 18.117C71.652 17.247 70.033 17.78 69.155 17.824C68.277 17.868 67.112 17.262 66.48 18.109C65.755 19.084 66.591 19.309 66.668 20.438C66.762 21.822 67.373 23.269 68.305 23.587C69.879 24.122 71.02 23.549 72.718 23.958C73.4376 24.2748 74.0591 24.7786 74.518 25.417C75.0368 25.9897 75.4602 26.642 75.772 27.349V31.719C75.3587 31.6799 74.9595 31.5484 74.6038 31.3343C74.2481 31.1202 73.945 30.8289 73.717 30.482C72.993 29.495 73.597 28.047 72.26 26.776C70.923 25.505 69.749 25.785 68.52 25.727C67.578 25.684 65.4 25.344 65.071 26.068C64.447 27.442 65.763 28.29 65.759 29.082C65.75 31.206 66.794 32.342 68.145 32.528" fill="#836A26"/>
<path d="M43.305 40.355C43.3133 40.8503 43.4677 41.3322 43.749 41.7401C44.0302 42.1479 44.4256 42.4636 44.8857 42.6475C45.3457 42.8313 45.8498 42.8752 46.3347 42.7735C46.8196 42.6718 47.2636 42.4291 47.611 42.0759C47.9584 41.7227 48.1937 41.2747 48.2873 40.7882C48.381 40.3017 48.3288 39.7984 48.1373 39.3415C47.9459 38.8845 47.6237 38.4944 47.2112 38.2199C46.7988 37.9455 46.3144 37.7991 45.819 37.799C45.1468 37.8048 44.5043 38.0773 44.0329 38.5566C43.5615 39.0359 43.2997 39.6827 43.305 40.355Z" fill="#836A26"/>
<path d="M39.969 27.389C38.669 26.635 38.183 27.538 37.429 27.341C36.582 27.121 35.202 26.48 34.601 27.098C33.933 28.745 35.274 28.89 34.964 30.047C34.654 31.204 34.111 32.707 35.226 33.464C36.341 34.221 38.966 33.821 40.346 34.043C41.2072 34.2409 42.0001 34.6647 42.6432 35.2707C43.2863 35.8767 43.7564 36.6431 44.005 37.491C44.5068 37.1725 45.0836 36.9917 45.6774 36.9666C46.2712 36.9415 46.8611 37.073 47.388 37.348C47.6542 36.5327 48.127 35.8003 48.7604 35.222C49.3937 34.6437 50.166 34.2392 51.002 34.048C52.382 33.825 55.009 34.226 56.123 33.469C57.237 32.712 56.697 31.209 56.385 30.052C56.073 28.895 57.414 28.752 56.746 27.103C56.146 26.485 54.765 27.126 53.918 27.346C53.164 27.546 52.677 26.639 51.378 27.394C49.44 28.52 50.755 30.154 50.088 31.494C49.421 32.834 47.478 33.169 47.016 33.401C47.016 33.401 47.006 28.618 47.143 27.206C47.214 26.463 48.315 25.699 49.465 25.147C51.265 24.284 54.781 24.979 55.978 23.926C57.175 22.873 56.458 21.987 56.433 20.837C56.413 19.854 57.368 18.706 56.601 17.701C55.978 16.886 54.59 17.819 54.014 17.892C53.254 17.992 52.338 17.246 50.901 17.652C49.319 18.101 49.379 21.03 49.249 22.01C49.149 22.728 47.405 24.74 46.949 24.404C46.949 24.404 46.549 19.653 46.924 18.322C48.1181 16.721 49.8555 15.6109 51.81 15.2C52.499 15.151 54.238 15.623 55.444 14.852C56.625 14.096 55.973 13.505 56.216 12.208C56.31 11.708 57.321 10.574 56.53 9.436C55.774 8.349 54.795 8.781 53.854 8.948C53.014 9.095 51.496 8.5 50.773 9.058C49.42 10.101 49.973 11.896 49.247 13.288C48.977 13.81 47.912 15.224 47.22 15.278C46.969 15.297 46.795 15.105 46.814 14.602C46.833 14.099 47.003 10.877 47.045 9.966C47.084 9.135 48.059 8.196 48.474 7.803C48.889 7.41 50.337 5.87 50.155 4.903C49.846 3.261 48.736 2.941 48.204 2.373C47.084 1.173 47.325 0.0160016 45.674 -0.00299835C44.022 0.0160016 44.264 1.175 43.144 2.373C42.612 2.941 41.502 3.262 41.193 4.903C41.012 5.867 42.459 7.403 42.874 7.803C43.289 8.203 44.264 9.135 44.303 9.966C44.345 10.876 44.515 14.099 44.536 14.602C44.557 15.105 44.381 15.302 44.13 15.278C43.436 15.225 42.371 13.81 42.101 13.288C41.38 11.896 41.928 10.102 40.575 9.058C39.854 8.5 38.335 9.096 37.494 8.948C36.555 8.782 35.574 8.348 34.818 9.436C34.026 10.573 35.039 11.703 35.133 12.208C35.374 13.508 34.724 14.097 35.905 14.852C37.112 15.624 38.849 15.152 39.539 15.2C41.4915 15.609 43.2279 16.7158 44.423 18.313C44.798 19.645 44.398 24.4 44.398 24.4C43.944 24.735 42.198 22.724 42.098 22.006C41.966 21.026 42.027 18.097 40.445 17.648C39.009 17.242 38.094 17.983 37.332 17.888C36.757 17.816 35.368 16.882 34.745 17.697C33.978 18.697 34.934 19.85 34.913 20.833C34.89 21.983 34.172 22.869 35.368 23.922C36.564 24.975 40.086 24.28 41.881 25.143C43.033 25.695 44.132 26.459 44.205 27.202C44.341 28.614 44.332 33.397 44.332 33.397C43.87 33.164 41.932 32.825 41.26 31.49C40.588 30.155 41.906 28.519 39.968 27.39" fill="#836A26"/>
</g>
</g>
<defs>
<clipPath id="clip0_378_2">
<rect width="91.636" height="84.192" fill="white"/>
</clipPath>
</defs>
</svg>
